<svg xmlns="http://www.w3.org/2000/svg" xmlns:svg="http://www.w3.org/2000/svg" xmlns:xlink="http://www.w3.org/1999/xlink" id="svg2414" width="744.094" height="1052.362" version="1.0"><defs id="defs2416"><linearGradient id="linearGradient3373"><stop id="stop3375" offset="0" style="stop-color:#6f6f6f;stop-opacity:1"/><stop id="stop3377" offset="1" style="stop-color:#4e4e4e;stop-opacity:1"/></linearGradient><linearGradient id="linearGradient3353"><stop id="stop3355" offset="0" style="stop-color:#349321;stop-opacity:1"/><stop id="stop3357" offset="1" style="stop-color:#7fbc35;stop-opacity:1"/></linearGradient><linearGradient id="linearGradient3347"><stop id="stop3349" offset="0" style="stop-color:#314675;stop-opacity:1"/><stop id="stop3351" offset="1" style="stop-color:#3358b9;stop-opacity:1"/></linearGradient><linearGradient id="linearGradient3341"><stop id="stop3343" offset="0" style="stop-color:#4a9620;stop-opacity:1"/><stop id="stop3345" offset="1" style="stop-color:#65db42;stop-opacity:1"/></linearGradient><linearGradient id="linearGradient3327"><stop id="stop3329" offset="0" style="stop-color:#d13333;stop-opacity:1"/><stop id="stop3331" offset="1" style="stop-color:#ee7457;stop-opacity:1"/></linearGradient><linearGradient id="linearGradient3257"><stop id="stop3259" offset="0" style="stop-color:#a4a4a4;stop-opacity:1"/><stop id="stop3261" offset="1" style="stop-color:#acacac;stop-opacity:1"/></linearGradient><linearGradient id="linearGradient3308"><stop id="stop3310" offset="0" style="stop-color:#b9dfff;stop-opacity:1"/><stop id="stop3312" offset="1" style="stop-color:#71aaff;stop-opacity:1"/></linearGradient><linearGradient id="linearGradient3240"><stop id="stop3242" offset="0" style="stop-color:#eee;stop-opacity:1"/><stop id="stop3244" offset="1" style="stop-color:#fff;stop-opacity:1"/></linearGradient><linearGradient id="linearGradient3246" x1="369.192" x2="369.192" y1="296.353" y2="234.058" gradientTransform="translate(20,0)" gradientUnits="userSpaceOnUse" xlink:href="#linearGradient3240"/><linearGradient id="linearGradient3284" x1="565.036" x2="565.036" y1="642.038" y2="569.549" gradientUnits="userSpaceOnUse" xlink:href="#linearGradient3240"/><linearGradient id="linearGradient3296" x1="413.489" x2="413.489" y1="624.808" y2="562.41" gradientUnits="userSpaceOnUse" xlink:href="#linearGradient3240"/><linearGradient id="linearGradient3304" x1="382.505" x2="382.505" y1="621.905" y2="547.258" gradientUnits="userSpaceOnUse" xlink:href="#linearGradient3240"/><linearGradient id="linearGradient3314" x1="389.326" x2="389.326" y1="577.058" y2="450.654" gradientUnits="userSpaceOnUse" xlink:href="#linearGradient3308"/><linearGradient id="linearGradient3424" x1="375.012" x2="375.012" y1="156.581" y2="114.719" gradientUnits="userSpaceOnUse" xlink:href="#linearGradient3240"/><linearGradient id="linearGradient3231" x1="363.247" x2="363.247" y1="320.135" y2="243.5" gradientUnits="userSpaceOnUse" xlink:href="#linearGradient3240"/><linearGradient id="linearGradient3263" x1="367.186" x2="367.186" y1="123.049" y2="146.44" gradientUnits="userSpaceOnUse" xlink:href="#linearGradient3373"/><linearGradient id="linearGradient3271" x1="383.548" x2="383.548" y1="520.642" y2="544.04" gradientUnits="userSpaceOnUse" xlink:href="#linearGradient3257"/><linearGradient id="linearGradient3281" x1="404.351" x2="404.351" y1="309.356" y2="228.059" gradientUnits="userSpaceOnUse" xlink:href="#linearGradient3347"/><linearGradient id="linearGradient3283" x1="349.351" x2="349.351" y1="309.356" y2="146.763" gradientUnits="userSpaceOnUse" xlink:href="#linearGradient3341"/><linearGradient id="linearGradient3285" x1="294.351" x2="294.351" y1="309.356" y2="209.356" gradientUnits="userSpaceOnUse" xlink:href="#linearGradient3327"/><linearGradient id="linearGradient3287" x1="241.351" x2="241.351" y1="309.356" y2="284.356" gradientUnits="userSpaceOnUse" xlink:href="#linearGradient3347"/><linearGradient id="linearGradient3289" x1="192.341" x2="192.341" y1="304.02" y2="179.288" gradientUnits="userSpaceOnUse" xlink:href="#linearGradient3327"/><linearGradient id="linearGradient3359" x1="375.873" x2="375.873" y1="633.417" y2="556.981" gradientTransform="matrix(0.9984074,0,0,1,0.8215576,0)" gradientUnits="userSpaceOnUse" xlink:href="#linearGradient3353"/><linearGradient id="linearGradient3513" x1="335.583" x2="335.583" y1="192.544" y2="215.785" gradientTransform="matrix(0.959888,0,0,1,40.079617,0.4334285)" gradientUnits="userSpaceOnUse" xlink:href="#linearGradient3257"/><linearGradient id="linearGradient3515" x1="318.429" x2="318.429" y1="158.36" y2="181.527" gradientTransform="matrix(0.959888,0,0,1,40.079617,0.4334285)" gradientUnits="userSpaceOnUse" xlink:href="#linearGradient3257"/><linearGradient id="linearGradient3517" x1="289.674" x2="289.674" y1="226.281" y2="249.523" gradientTransform="matrix(0.959888,0,0,1,40.079617,0.4334285)" gradientUnits="userSpaceOnUse" xlink:href="#linearGradient3257"/><linearGradient id="linearGradient3519" x1="348.759" x2="348.759" y1="124.88" y2="148.122" gradientTransform="matrix(0.9334633,0,0,1,46.172843,0.4334285)" gradientUnits="userSpaceOnUse" xlink:href="#linearGradient3257"/></defs><g id="layer1"><g id="graphic" transform="translate(165.71429,-208.57143)"><path id="rect2383" d="M 220.70312,442.04514 L 220.70312,622.67922 L 529.29688,622.67922 L 529.29688,442.04514 L 220.70312,442.04514 z" style="opacity:1;fill:url(#linearGradient3304);fill-opacity:1;fill-rule:nonzero;stroke:#000;stroke-width:1;stroke-linecap:round;stroke-linejoin:miter;marker:none;marker-start:none;marker-mid:none;marker-end:none;stroke-miterlimit:4;stroke-dasharray:none;stroke-dashoffset:10;stroke-opacity:1;visibility:visible;display:inline;overflow:visible;enable-background:accumulate"/><rect id="rect2447" width="279.405" height="154.649" x="236.468" y="456.285" style="opacity:1;fill:url(#linearGradient3314);fill-opacity:1;fill-rule:evenodd;stroke:none;stroke-width:1;stroke-linecap:square;stroke-linejoin:miter;marker:none;marker-start:none;marker-mid:none;marker-end:none;stroke-miterlimit:4;stroke-dasharray:none;stroke-dashoffset:1.5;stroke-opacity:1;visibility:visible;display:inline;overflow:visible;enable-background:accumulate"/><path id="rect3221" d="M 353.28861,540.88641 C 351.92357,540.92303 350.30332,541.12192 348.20297,541.54266 C 335.46257,544.0948 324.23085,550.92025 311.26189,554.16766 C 295.2683,558.17243 278.31793,564.04151 262.58953,569.29266 C 254.5825,571.96593 242.56529,575.42086 236.47029,575.25465 L 236.46357,610.92518 L 515.87304,610.92518 L 515.87304,576.79266 C 512.84647,576.00464 512.30034,575.29652 508.54094,574.35516 C 503.69457,573.14163 501.4138,571.82391 495.96729,571.82391 C 489.64048,571.82391 483.59343,572.82856 477.49675,574.35516 C 470.08518,576.21101 460.1018,580.49948 452.28697,578.54266 C 447.53145,577.3519 442.84333,575.31967 438.02841,574.35516 C 432.61005,573.26975 427.94959,572.14841 422.9275,570.13641 C 415.07582,566.99073 405.28367,560.87702 396.90653,559.19891 C 385.83597,556.98127 376.513,549.19724 365.8311,544.91766 C 359.28853,542.29645 357.38373,540.77655 353.28861,540.88641 z" style="opacity:1;fill:url(#linearGradient3359);fill-opacity:1;fill-rule:evenodd;stroke:none;stroke-width:1;stroke-linecap:square;stroke-linejoin:miter;marker:none;marker-start:none;marker-mid:none;marker-end:none;stroke-miterlimit:4;stroke-dasharray:none;stroke-dashoffset:1.5;stroke-opacity:1;visibility:visible;display:inline;overflow:visible;enable-background:accumulate"/></g><path id="object" d="M 386.41741,467.75943 L 386.41741,648.39351 L 695.01117,648.39351 L 695.01117,467.75943 L 386.41741,467.75943 z" style="fill:url(#linearGradient3284);fill-opacity:1;stroke:#000;stroke-width:1;stroke-linecap:round;stroke-linejoin:miter;stroke-miterlimit:4;stroke-dasharray:none;stroke-dashoffset:10;stroke-opacity:1"/><g id="title" transform="translate(-179.99777,-82.856564)"><path id="path2448" d="M 202.84375,115.21875 L 202.84375,155.21875 L 511.4375,155.21875 L 511.4375,115.21875 L 202.84375,115.21875 z" style="opacity:1;fill:url(#linearGradient3424);fill-opacity:1;stroke:#000;stroke-width:1;stroke-linecap:round;stroke-linejoin:miter;stroke-miterlimit:4;stroke-dasharray:none;stroke-dashoffset:10;stroke-opacity:1"/><rect id="rect3158" width="292.201" height="23.356" x="211.2" y="123.084" style="opacity:1;fill:url(#linearGradient3263);fill-opacity:1;stroke:none;stroke-width:1;stroke-linecap:round;stroke-linejoin:miter;stroke-miterlimit:4;stroke-dasharray:none;stroke-dashoffset:10;stroke-opacity:1"/></g><g id="subtitle" transform="translate(165,-419.99999)"><g id="g2560"><path id="path2465" d="M 220.70312,442.04514 L 220.70312,622.67922 L 529.29688,622.67922 L 529.29688,442.04514 L 220.70312,442.04514 z" style="opacity:1;fill:url(#linearGradient3296);fill-opacity:1;fill-rule:nonzero;stroke:#000;stroke-width:1;stroke-linecap:round;stroke-linejoin:miter;marker:none;marker-start:none;marker-mid:none;marker-end:none;stroke-miterlimit:4;stroke-dasharray:none;stroke-dashoffset:10;stroke-opacity:1;visibility:visible;display:inline;overflow:visible;enable-background:accumulate"/><rect id="rect2467" width="269.344" height="23.356" x="240.328" y="520.684" style="fill:url(#linearGradient3271);fill-opacity:1;stroke:none;stroke-width:1;stroke-linecap:round;stroke-linejoin:miter;stroke-miterlimit:4;stroke-dasharray:none;stroke-dashoffset:10;stroke-opacity:1"/></g></g><g id="outline" transform="translate(-181.4375,117.14343)"><path id="path2492" d="M 222.84375,115.21875 L 222.84375,295.85283 L 531.4375,295.85283 L 531.4375,115.21875 L 222.84375,115.21875 z" style="opacity:1;fill:url(#linearGradient3246);fill-opacity:1;stroke:#000;stroke-width:1;stroke-linecap:round;stroke-linejoin:miter;stroke-miterlimit:4;stroke-dasharray:none;stroke-dashoffset:10;stroke-opacity:1"/><g id="g3340" transform="translate(0,4)"><g id="g3497" transform="translate(0,2.5141258)"><rect id="rect3216" width="168.634" height="23.167" x="261.419" y="158.794" style="fill:url(#linearGradient3515);fill-opacity:1;stroke:none;stroke-width:1;stroke-linecap:round;stroke-linejoin:miter;stroke-miterlimit:4;stroke-dasharray:none;stroke-dashoffset:10;stroke-opacity:1"/><path id="path3218" d="M 248.6416,170.37704 C 248.6416,173.69075 245.95531,176.37704 242.6416,176.37704 C 239.32789,176.37704 236.6416,173.69075 236.6416,170.37704 C 236.6416,167.06333 239.32789,164.37704 242.6416,164.37704 C 245.95531,164.37704 248.6416,167.06333 248.6416,170.37704 L 248.6416,170.37704 z" style="fill:#000;fill-opacity:1;stroke:none;stroke-width:1;stroke-linecap:round;stroke-linejoin:miter;stroke-miterlimit:4;stroke-dasharray:none;stroke-dashoffset:10;stroke-opacity:1"/></g><g id="g3501" transform="translate(0,1.2768616)"><rect id="rect3304" width="252.035" height="23.242" x="261.419" y="125.314" style="fill:url(#linearGradient3519);fill-opacity:1;stroke:none;stroke-width:1;stroke-linecap:round;stroke-linejoin:miter;stroke-miterlimit:4;stroke-dasharray:none;stroke-dashoffset:10;stroke-opacity:1"/><path id="path3306" d="M 248.6416,136.9348 C 248.6416,140.24851 245.95531,142.9348 242.6416,142.9348 C 239.32789,142.9348 236.6416,140.24851 236.6416,136.9348 C 236.6416,133.62109 239.32789,130.9348 242.6416,130.9348 C 245.95531,130.9348 248.6416,133.62109 248.6416,136.9348 L 248.6416,136.9348 z" style="fill:#000;fill-opacity:1;stroke:none;stroke-width:1;stroke-linecap:round;stroke-linejoin:miter;stroke-miterlimit:4;stroke-dasharray:none;stroke-dashoffset:10;stroke-opacity:1"/></g><g id="g3505" transform="translate(0,3.2700544)"><rect id="rect3310" width="201.528" height="23.242" x="261.438" y="192.977" style="fill:url(#linearGradient3513);fill-opacity:1;stroke:none;stroke-width:1;stroke-linecap:round;stroke-linejoin:miter;stroke-miterlimit:4;stroke-dasharray:none;stroke-dashoffset:10;stroke-opacity:1"/><path id="path3312" d="M 248.66102,204.59787 C 248.66102,207.91158 245.97473,210.59787 242.66102,210.59787 C 239.34731,210.59787 236.66102,207.91158 236.66102,204.59787 C 236.66102,201.28416 239.34731,198.59787 242.66102,198.59787 C 245.97473,198.59787 248.66102,201.28416 248.66102,204.59787 L 248.66102,204.59787 z" style="fill:#000;fill-opacity:1;stroke:none;stroke-width:1;stroke-linecap:round;stroke-linejoin:miter;stroke-miterlimit:4;stroke-dasharray:none;stroke-dashoffset:10;stroke-opacity:1"/></g><g id="g3509" transform="translate(0,4.8442404)"><rect id="rect3316" width="113.43" height="23.242" x="261.419" y="226.714" style="fill:url(#linearGradient3517);fill-opacity:1;stroke:none;stroke-width:1;stroke-linecap:round;stroke-linejoin:miter;stroke-miterlimit:4;stroke-dasharray:none;stroke-dashoffset:10;stroke-opacity:1"/><path id="path3318" d="M 248.6416,238.33508 C 248.6416,241.64879 245.95531,244.33508 242.6416,244.33508 C 239.32789,244.33508 236.6416,241.64879 236.6416,238.33508 C 236.6416,235.02137 239.32789,232.33508 242.6416,232.33508 C 245.95531,232.33508 248.6416,235.02137 248.6416,238.33508 L 248.6416,238.33508 z" style="fill:#000;fill-opacity:1;stroke:none;stroke-width:1;stroke-linecap:round;stroke-linejoin:miter;stroke-miterlimit:4;stroke-dasharray:none;stroke-dashoffset:10;stroke-opacity:1"/></g></g></g><g id="chart" transform="translate(-109.85067,328.00648)"><g id="g2464"><path id="path2524" d="M 146.98236,139.75295 L 146.98236,320.38703 L 455.57612,320.38703 L 455.57612,139.75295 L 146.98236,139.75295 z" style="opacity:1;fill:url(#linearGradient3231);fill-opacity:1;fill-rule:nonzero;stroke:#000;stroke-width:1;stroke-linecap:round;stroke-linejoin:miter;marker:none;marker-start:none;marker-mid:none;marker-end:none;stroke-miterlimit:4;stroke-dasharray:none;stroke-dashoffset:10;stroke-opacity:1;visibility:visible;display:inline;overflow:visible;enable-background:accumulate"/><rect id="rect2526" width="35.02" height="130.068" x="174.831" y="179.288" style="fill:url(#linearGradient3289);fill-opacity:1;stroke:none;stroke-width:1;stroke-linecap:round;stroke-linejoin:miter;stroke-miterlimit:4;stroke-dasharray:none;stroke-dashoffset:10;stroke-opacity:1"/><rect id="rect2444" width="35" height="25" x="223.851" y="284.356" style="fill:url(#linearGradient3287);fill-opacity:1;stroke:none;stroke-width:1;stroke-linecap:round;stroke-linejoin:miter;stroke-miterlimit:4;stroke-dasharray:none;stroke-dashoffset:10;stroke-opacity:1"/><rect id="rect2446" width="35" height="100" x="276.851" y="209.356" style="fill:url(#linearGradient3285);fill-opacity:1;stroke:none;stroke-width:1;stroke-linecap:round;stroke-linejoin:miter;stroke-miterlimit:4;stroke-dasharray:none;stroke-dashoffset:10;stroke-opacity:1"/><rect id="rect2448" width="35" height="162.593" x="331.851" y="146.763" style="fill:url(#linearGradient3283);fill-opacity:1;stroke:none;stroke-width:1;stroke-linecap:round;stroke-linejoin:miter;stroke-miterlimit:4;stroke-dasharray:none;stroke-dashoffset:10;stroke-opacity:1"/><rect id="rect2450" width="35" height="80" x="386.851" y="229.356" style="fill:url(#linearGradient3281);fill-opacity:1;stroke:none;stroke-width:1;stroke-linecap:round;stroke-linejoin:miter;stroke-miterlimit:4;stroke-dasharray:none;stroke-dashoffset:10;stroke-opacity:1"/></g><path id="path3185" d="M 55,477.36218 L 55,637.36218 L 325,637.36218" transform="translate(109.85067,-328.00648)" style="fill:none;fill-rule:evenodd;stroke:#2e2e2e;stroke-width:5;stroke-linecap:butt;stroke-linejoin:miter;stroke-miterlimit:4;stroke-dasharray:none;stroke-opacity:1"/></g></g></svg>