<svg xmlns="http://www.w3.org/2000/svg" xmlns:xlink="http://www.w3.org/1999/xlink" width="48" height="48"><defs><linearGradient id="a" x1="27" x2="19" y1="44" y2="33" gradientTransform="matrix(1 0 0 1.25-5-6)" gradientUnits="userSpaceOnUse"><stop stop-color="#18222a"/><stop offset="1" stop-color="#566069"/></linearGradient><linearGradient id="b" x2="0" y1="36" y2="32" gradientTransform="translate(-4.5 4)" gradientUnits="userSpaceOnUse"><stop stop-color="#f39c12"/><stop offset="1" stop-color="#f5ab35"/></linearGradient><linearGradient id="c" x2="0" y1="543.8" y2="503.8" gradientTransform="matrix(1.125 0 0 1-435.64-499.8)" gradientUnits="userSpaceOnUse"><stop stop-color="#bd8d48"/><stop offset="1" stop-color="#e8b971"/></linearGradient><linearGradient id="d" x2="0" y1="541.8" y2="505.8" gradientTransform="translate(-384.57-499.8)" gradientUnits="userSpaceOnUse"><stop stop-color="#d8dcde"/><stop offset="1" stop-color="#f9fafb"/></linearGradient><linearGradient id="e" x2="0" y1="542.8" y2="504.8" gradientTransform="translate(-384.57-499.8)" gradientUnits="userSpaceOnUse"><stop stop-color="#977a5c"/><stop offset="1" stop-color="#9d8062"/></linearGradient><linearGradient id="f" x1="11" x2="29.13" y1="4" y2="22.13" gradientTransform="translate(7 4)" gradientUnits="userSpaceOnUse"><stop/><stop offset="1" stop-opacity="0"/></linearGradient><linearGradient id="g" x1="8" x2="21" y1="4" y2="32" gradientTransform="translate(7 4)" gradientUnits="userSpaceOnUse"><stop stop-color="#bdc3c7"/><stop offset="1" stop-color="#7f8c8d"/></linearGradient><linearGradient id="h" x1="21.57" x2="42" y1="8.773" y2="29.2" gradientUnits="userSpaceOnUse" xlink:href="#f"/><linearGradient id="i" x1="14" x2="21" y1="39" y2="46" gradientUnits="userSpaceOnUse" xlink:href="#f"/></defs><rect width="36" height="40" x="6" y="4" fill="url(#c)" rx="0"/><rect width="34" height="38" x="7" y="5" fill="url(#e)" opacity=".5"/><rect width="36" height="1" x="6" y="43" fill="#aa7f41"/><rect width="32" height="36" x="8" y="6" fill="url(#d)"/><g fill="#1f1f1f" fill-opacity=".314"><rect width="32" height="2" x="8" y="40"/><rect width="32" height="1" x="8" y="41"/></g><g fill-rule="evenodd"><path fill="url(#h)" d="m21.57 8.773l-.57 1.227 1 34h20v-14.797z" opacity=".2"/><path fill="url(#f)" d="m18 8l2 2 2 20-7 2z" opacity=".2"/></g><g stroke-linejoin="bevel"><path fill="url(#g)" stroke-width="2" d="m18 8a2 2 0 0 0 -2 2 2 2 0 0 0 .855469 1.636719C15.389 16.06 12.71 23.29 10 26c0 0 4 6 4 10h10C24 32 28 26 28 26 25.29 23.29 22.613 16.07 21.15 11.639A2 2 0 0 0 22 10 2 2 0 0 0 20 8v18.27c.618.357.999 1.017 1 1.73 0 1.105-.895 2-2 2-1.105 0-2-.895-2-2 .001-.713.382-1.372 1-1.729V12z"/><g stroke-width="6.2"><path fill="url(#b)" d="m14 36h10c.831 0 1.5.669 1.5 1.5 0 .831-.669 1.5-1.5 1.5h-10c-.831 0-1.5-.669-1.5-1.5 0-.831.669-1.5 1.5-1.5"/><rect width="10" height="5" x="14" y="39" fill="url(#a)" stroke-linecap="round" rx="0"/></g></g><path fill="url(#i)" fill-rule="evenodd" d="m14 39l5 5h5v-5z" opacity=".2"/></svg>