<svg xmlns="http://www.w3.org/2000/svg" xmlns:svg="http://www.w3.org/2000/svg" xmlns:xlink="http://www.w3.org/1999/xlink" id="svg3408" width="128" height="128" version="1.0"><defs id="defs3410"><linearGradient id="linearGradient6955"><stop style="stop-color:#fd0000;stop-opacity:1" id="stop6957" offset="0"/><stop style="stop-color:#8f0000;stop-opacity:1" id="stop6959" offset="1"/></linearGradient><linearGradient id="linearGradient6330"><stop id="stop6332" offset="0" style="stop-color:#0968ef;stop-opacity:1"/><stop id="stop6334" offset="1" style="stop-color:#aecffc;stop-opacity:1"/></linearGradient><linearGradient id="linearGradient4268" x1="11.681" x2="11.681" y1="60.539" y2="108.01" gradientTransform="translate(85.312496,19.999992)" gradientUnits="userSpaceOnUse" xlink:href="#linearGradient3202"/><linearGradient id="linearGradient3260"><stop style="stop-color:#fff;stop-opacity:1" id="stop3262" offset="0"/><stop style="stop-color:#fff;stop-opacity:0" id="stop3264" offset="1"/></linearGradient><radialGradient id="XMLID_4_" cx="48" cy="-.215" r="55.148" gradientTransform="matrix(0.9792,0,0,0.9725,133.0002,20.8762)" gradientUnits="userSpaceOnUse"><stop style="stop-color:#72d13d" id="stop3082" offset="0"/><stop style="stop-color:#35ac1c" id="stop3084" offset=".355"/><stop style="stop-color:#0f9508" id="stop3086" offset=".619"/><stop style="stop-color:#008c00" id="stop3088" offset=".757"/><stop style="stop-color:#007a00" id="stop3090" offset="1"/></radialGradient><filter id="filter3387" width="1.204" height="1.25" x="-.102" y="-.125"><feGaussianBlur id="feGaussianBlur3389" stdDeviation=".447"/></filter><linearGradient id="linearGradient5412" x1="28" x2="28" y1="57.5" y2="0" gradientUnits="userSpaceOnUse"><stop id="stop5414" offset="0" style="stop-color:#fff14d;stop-opacity:1"/><stop id="stop5416" offset="1" style="stop-color:#f8ffa0;stop-opacity:0"/></linearGradient><linearGradient id="linearGradient3202"><stop id="stop3204" offset="0" style="stop-color:#cbff9c;stop-opacity:1"/><stop id="stop3206" offset="1" style="stop-color:#65c171;stop-opacity:0"/></linearGradient><linearGradient id="linearGradient3207"><stop id="stop3209" offset="0" style="stop-color:#fff;stop-opacity:1"/><stop id="stop3211" offset="1" style="stop-color:#252525;stop-opacity:0"/></linearGradient><linearGradient id="linearGradient3225"><stop id="stop3227" offset="0" style="stop-color:#fff;stop-opacity:1"/><stop id="stop3229" offset="1" style="stop-color:#aeaeae;stop-opacity:1"/></linearGradient><linearGradient id="linearGradient3330" x1="412.786" x2="412.786" y1="400.846" y2="422.636" gradientUnits="userSpaceOnUse" xlink:href="#linearGradient3163"/><linearGradient id="linearGradient3215"><stop style="stop-color:#671800;stop-opacity:1" id="stop3217" offset="0"/><stop style="stop-color:#7b3900;stop-opacity:0" id="stop3219" offset="1"/></linearGradient><linearGradient id="linearGradient3163"><stop style="stop-color:#fff5e4;stop-opacity:1" id="stop3165" offset="0"/><stop style="stop-color:#ffecd0;stop-opacity:1" id="stop3173" offset=".25"/><stop style="stop-color:#ffd390;stop-opacity:1" id="stop3171" offset=".5"/><stop style="stop-color:#ffc46a;stop-opacity:1" id="stop3167" offset="1"/></linearGradient><linearGradient id="linearGradient4073" x1="414.416" x2="461.906" y1="458.626" y2="458.626" gradientUnits="userSpaceOnUse" xlink:href="#linearGradient4067"/><linearGradient id="linearGradient4067"><stop id="stop4069" offset="0" style="stop-color:#8d97b7;stop-opacity:1"/><stop id="stop4071" offset="1" style="stop-color:#8d97b7;stop-opacity:0"/></linearGradient><linearGradient id="linearGradient3439" x1="324.65" x2="325.769" y1="398.854" y2="370.57" gradientUnits="userSpaceOnUse" xlink:href="#linearGradient3433"/><linearGradient id="linearGradient3433"><stop id="stop3435" offset="0" style="stop-color:#fff;stop-opacity:1"/><stop id="stop3437" offset="1" style="stop-color:#fff;stop-opacity:0"/></linearGradient><linearGradient id="linearGradient6396" x1="412.786" x2="412.786" y1="400.846" y2="422.636" gradientUnits="userSpaceOnUse" xlink:href="#linearGradient3163"/><linearGradient id="linearGradient6404" x1="324.65" x2="325.769" y1="398.854" y2="370.57" gradientUnits="userSpaceOnUse" xlink:href="#linearGradient3433"/><linearGradient id="linearGradient6420" x1="414.416" x2="461.906" y1="458.626" y2="458.626" gradientUnits="userSpaceOnUse" xlink:href="#linearGradient4067"/><linearGradient id="linearGradient6961" x1="72.632" x2="73.264" y1="18.359" y2="24.053" gradientUnits="userSpaceOnUse" xlink:href="#linearGradient6955"/><radialGradient id="radialGradient6987" cx="72.632" cy="22.788" r="1.265" fx="72.632" fy="22.788" gradientTransform="matrix(1.4999961,0,0,1.4999992,-36.315579,-11.393764)" gradientUnits="userSpaceOnUse" xlink:href="#linearGradient6955"/><radialGradient id="radialGradient6991" cx="72.632" cy="22.788" r="1.265" fx="72.632" fy="22.788" gradientTransform="matrix(1.4999961,0,0,1.4999992,-41.336986,-11.393764)" gradientUnits="userSpaceOnUse" xlink:href="#linearGradient6955"/><linearGradient id="linearGradient7157" x1="73.743" x2="79.699" y1="15.337" y2="19.547" gradientUnits="userSpaceOnUse" spreadMethod="reflect" xlink:href="#linearGradient3260"/><linearGradient id="linearGradient7159" x1="73.743" x2="78.534" y1="15.337" y2="19.479" gradientUnits="userSpaceOnUse" spreadMethod="reflect" xlink:href="#linearGradient3260"/><filter id="filter7195"><feGaussianBlur id="feGaussianBlur7197" stdDeviation=".4"/></filter><linearGradient id="linearGradient2561" x1="87.778" x2="78.745" y1="57.747" y2="43.9" gradientTransform="matrix(0.7779918,0.1358959,-0.5075969,0.2082871,40.494877,40.055208)" gradientUnits="userSpaceOnUse" xlink:href="#linearGradient6330"/><linearGradient id="linearGradient2565" x1="85.148" x2="65.477" y1="55.438" y2="25.288" gradientTransform="matrix(0.18024,0.2717335,-0.1175967,0.4164848,31.424649,-16.23744)" gradientUnits="userSpaceOnUse" xlink:href="#linearGradient6330"/><linearGradient id="linearGradient2573" x1="85.148" x2="65.477" y1="55.438" y2="25.288" gradientTransform="matrix(1.5482481e-2,0.7477197,-0.5587124,-0.2606986,96.329864,35.487677)" gradientUnits="userSpaceOnUse" xlink:href="#linearGradient6330"/><linearGradient id="linearGradient2575" x1="87.778" x2="78.745" y1="57.747" y2="43.9" gradientTransform="matrix(0.7779918,0.1358959,-0.5075969,0.2082871,40.494877,40.055208)" gradientUnits="userSpaceOnUse" xlink:href="#linearGradient6330"/><linearGradient id="linearGradient2579" x1="87.778" x2="78.745" y1="57.747" y2="43.9" gradientTransform="matrix(0.7779918,0.1358959,-0.5075969,0.2082871,40.494877,40.055208)" gradientUnits="userSpaceOnUse" xlink:href="#linearGradient6330"/><linearGradient id="linearGradient2585" x1="85.148" x2="65.477" y1="55.438" y2="25.288" gradientTransform="matrix(0.18024,0.2717335,-0.1175967,0.4164848,87.385032,67.773473)" gradientUnits="userSpaceOnUse" xlink:href="#linearGradient6330"/><linearGradient id="linearGradient2587" x1="85.148" x2="65.477" y1="55.438" y2="25.288" gradientTransform="matrix(1.5482481e-2,0.7477197,-0.5587124,-0.2606986,96.329864,35.487677)" gradientUnits="userSpaceOnUse" xlink:href="#linearGradient6330"/><linearGradient id="linearGradient2590" x1="85.148" x2="65.477" y1="55.438" y2="25.288" gradientTransform="matrix(1.5482481e-2,0.7477197,-0.5587124,-0.2606986,96.329864,35.487677)" gradientUnits="userSpaceOnUse" xlink:href="#linearGradient6330"/><linearGradient id="linearGradient3298" x1="8.239" x2="8.239" y1="-13.865" y2="-1.405" gradientTransform="translate(63.949686,0)" gradientUnits="userSpaceOnUse" xlink:href="#linearGradient3288"/><linearGradient id="linearGradient2217" x1="399.775" x2="399.775" y1="1164.67" y2="549.061" gradientTransform="matrix(6.0715756e-2,0,0,9.7589526e-2,12.072045,-37.627655)" gradientUnits="userSpaceOnUse" xlink:href="#linearGradient7422"/><linearGradient id="linearGradient2214" x1="119.576" x2="16" y1="23.793" y2="109.651" gradientTransform="matrix(0.5415355,0,0,0.7222225,11.348006,-0.2222193)" gradientUnits="userSpaceOnUse" xlink:href="#linearGradient2431"/><linearGradient id="linearGradient2211" x1="102.311" x2="74.33" y1="-5.83" y2="32" gradientTransform="matrix(0,-1.1981278,-1.5,0,96,149.35412)" gradientUnits="userSpaceOnUse" xlink:href="#linearGradient3310"/><linearGradient id="linearGradient2207" x1="80.347" x2="73.463" y1="17.269" y2="107.955" gradientTransform="matrix(0.8333334,0,0,0.8888891,19.747863,31.098537)" gradientUnits="userSpaceOnUse" xlink:href="#linearGradient3323"/><linearGradient id="linearGradient2204" x1="20" x2="20" y1="78.165" y2="109.849" gradientTransform="matrix(0,3.3333334,2.5593082,-0.639827,-169.23171,69.650699)" gradientUnits="userSpaceOnUse" xlink:href="#linearGradient3314"/><linearGradient id="linearGradient2201" x1="113.157" x2="39.268" y1="25.786" y2="25.786" gradientTransform="matrix(0.3995716,0.3995716,0.3995716,-0.3995716,56.863409,79.33794)" gradientUnits="userSpaceOnUse" xlink:href="#linearGradient2399"/><linearGradient id="linearGradient3553" x1="113.157" x2="39.268" y1="25.786" y2="25.786" gradientTransform="translate(11.999999,0)" gradientUnits="userSpaceOnUse" xlink:href="#linearGradient2399"/><linearGradient id="linearGradient3551" x1="20" x2="20" y1="78.165" y2="109.849" gradientTransform="matrix(3.3333334,0,-0.639827,2.5593082,69.638116,-169.21913)" gradientUnits="userSpaceOnUse" xlink:href="#linearGradient3314"/><linearGradient id="linearGradient3549" x1="80.347" x2="73.463" y1="17.269" y2="107.955" gradientTransform="matrix(0.8333334,0,0,0.9162458,40.666665,32.068602)" gradientUnits="userSpaceOnUse" xlink:href="#linearGradient3323"/><linearGradient id="linearGradient3547" x1="102.311" x2="74.33" y1="-5.83" y2="32" gradientTransform="matrix(1.5714286,0,0,2,-77.455357,-24)" gradientUnits="userSpaceOnUse" xlink:href="#linearGradient3310"/><linearGradient id="linearGradient3545" x1="42.729" x2="124.092" y1="100" y2="28" gradientTransform="matrix(0.8333334,0,0,0.888889,-5.3333316,-16.888886)" gradientUnits="userSpaceOnUse" xlink:href="#linearGradient2431"/><linearGradient id="linearGradient3543" x1="399.775" x2="399.775" y1="1164.67" y2="549.061" gradientTransform="matrix(9.7165589e-2,0,0,0.1301193,-6.3061697,-71.503536)" gradientUnits="userSpaceOnUse" xlink:href="#linearGradient7422"/><linearGradient id="linearGradient3514" x1="113.157" x2="39.268" y1="25.786" y2="25.786" gradientTransform="translate(11.999999,0)" gradientUnits="userSpaceOnUse" xlink:href="#linearGradient2399"/><linearGradient id="linearGradient2534" x1="80.347" x2="73.463" y1="17.269" y2="107.955" gradientTransform="matrix(0.8333334,0,0,0.9162458,40.666665,32.068602)" gradientUnits="userSpaceOnUse" xlink:href="#linearGradient3323"/><linearGradient id="linearGradient2531" x1="20" x2="20" y1="78.165" y2="109.849" gradientTransform="matrix(3.3333334,0,-0.639827,2.5593082,69.638116,-169.21913)" gradientUnits="userSpaceOnUse" xlink:href="#linearGradient3314"/><linearGradient id="linearGradient3323"><stop id="stop3325" offset="0" style="stop-color:#c7cdd7;stop-opacity:1"/><stop id="stop3327" offset="1" style="stop-color:#fff;stop-opacity:1"/></linearGradient><linearGradient id="linearGradient3314"><stop style="stop-color:#fff;stop-opacity:1" id="stop3316" offset="0"/><stop style="stop-color:#fff;stop-opacity:0" id="stop3318" offset="1"/></linearGradient><linearGradient id="linearGradient3310"><stop style="stop-color:#fff;stop-opacity:1" id="stop3312" offset="0"/><stop style="stop-color:#fff;stop-opacity:0" id="stop3314" offset="1"/></linearGradient><linearGradient id="linearGradient7422"><stop id="stop7424" offset="0" style="stop-color:#b4b4b6;stop-opacity:1"/><stop style="stop-color:#9c9ca1;stop-opacity:1" id="stop5348" offset=".5"/><stop style="stop-color:#cdcdd1;stop-opacity:1" id="stop7426" offset="1"/></linearGradient><linearGradient id="linearGradient2431"><stop id="stop2433" offset="0" style="stop-color:#fff;stop-opacity:1"/><stop style="stop-color:#fff;stop-opacity:1" id="stop2435" offset=".426"/><stop style="stop-color:#f1f1f1;stop-opacity:1" id="stop2437" offset=".589"/><stop id="stop2439" offset=".802" style="stop-color:#eaeaea;stop-opacity:1"/><stop id="stop2441" offset="1" style="stop-color:#dfdfdf;stop-opacity:1"/></linearGradient><linearGradient id="linearGradient2399"><stop style="stop-color:#0968ef;stop-opacity:1" id="stop2401" offset="0"/><stop style="stop-color:#aecffc;stop-opacity:1" id="stop2403" offset="1"/></linearGradient><linearGradient id="linearGradient3287" x1="399.775" x2="399.775" y1="1164.67" y2="549.061" gradientTransform="matrix(9.7165589e-2,0,0,0.1301193,-6.3061697,-71.503536)" gradientUnits="userSpaceOnUse" xlink:href="#linearGradient7422"/><linearGradient id="linearGradient3289" x1="42.729" x2="124.092" y1="100" y2="28" gradientTransform="matrix(0.8333334,0,0,0.888889,-5.3333316,-16.888886)" gradientUnits="userSpaceOnUse" xlink:href="#linearGradient2431"/><linearGradient id="linearGradient3292" x1="102.311" x2="74.33" y1="-5.83" y2="32" gradientTransform="matrix(1.5714286,0,0,2,-77.455357,-24)" gradientUnits="userSpaceOnUse" xlink:href="#linearGradient3310"/><linearGradient id="linearGradient3288"><stop id="stop3290" offset="0" style="stop-color:#618fd2;stop-opacity:1"/><stop id="stop3292" offset="1" style="stop-color:#a4c0e4;stop-opacity:1"/></linearGradient><linearGradient id="linearGradient2222"><stop style="stop-color:#06f;stop-opacity:1" id="stop2224" offset="0"/><stop style="stop-color:#80b3ff;stop-opacity:1" id="stop2226" offset="1"/></linearGradient><linearGradient id="linearGradient2654" x1="8.239" x2="8.239" y1="-13.865" y2="-1.405" gradientTransform="matrix(0.7476489,0,0,0.7476489,8,-7.999993)" gradientUnits="userSpaceOnUse" xlink:href="#linearGradient2222"/><linearGradient id="linearGradient2682" x1="72.632" x2="73.264" y1="18.359" y2="24.053" gradientTransform="matrix(7.5447509,0,0,7.5447509,-533.57032,-109.35828)" gradientUnits="userSpaceOnUse" xlink:href="#linearGradient6955"/><linearGradient id="linearGradient2684" x1="73.743" x2="79.699" y1="15.337" y2="19.547" gradientUnits="userSpaceOnUse" spreadMethod="reflect" xlink:href="#linearGradient3260"/><linearGradient id="linearGradient2686" x1="73.743" x2="78.534" y1="15.337" y2="19.479" gradientUnits="userSpaceOnUse" spreadMethod="reflect" xlink:href="#linearGradient3260"/><linearGradient id="linearGradient2688" x1="73.743" x2="79.463" y1="15.337" y2="22.022" gradientUnits="userSpaceOnUse" spreadMethod="reflect" xlink:href="#linearGradient3260"/><linearGradient id="linearGradient2690" x1="73.993" x2="79.784" y1="15.337" y2="19.787" gradientUnits="userSpaceOnUse" spreadMethod="reflect" xlink:href="#linearGradient3260"/><radialGradient id="radialGradient2692" cx="72.632" cy="22.788" r="1.265" fx="72.632" fy="22.788" gradientTransform="matrix(28.302594,0,0,8.4878405,-2043.6274,-129.65569)" gradientUnits="userSpaceOnUse" xlink:href="#linearGradient6955"/><linearGradient id="linearGradient2694" x1="23.811" x2="29.36" y1="44.186" y2="64.895" gradientTransform="matrix(0.8949275,0,0,0.8949275,-13.198022,6.486342)" gradientUnits="userSpaceOnUse" xlink:href="#linearGradient3260"/><linearGradient id="linearGradient3520" x1="72.632" x2="73.264" y1="18.359" y2="24.053" gradientTransform="matrix(7.5447509,0,0,7.5447509,-461.57032,-109.35828)" gradientUnits="userSpaceOnUse" xlink:href="#linearGradient6955"/><linearGradient id="linearGradient3522" x1="73.743" x2="79.699" y1="15.337" y2="19.547" gradientUnits="userSpaceOnUse" spreadMethod="reflect" xlink:href="#linearGradient3260"/><linearGradient id="linearGradient3524" x1="73.743" x2="78.534" y1="15.337" y2="19.479" gradientUnits="userSpaceOnUse" spreadMethod="reflect" xlink:href="#linearGradient3260"/><linearGradient id="linearGradient3526" x1="73.743" x2="79.463" y1="15.337" y2="22.022" gradientUnits="userSpaceOnUse" spreadMethod="reflect" xlink:href="#linearGradient3260"/><linearGradient id="linearGradient3528" x1="73.993" x2="79.784" y1="15.337" y2="19.787" gradientUnits="userSpaceOnUse" spreadMethod="reflect" xlink:href="#linearGradient3260"/><radialGradient id="radialGradient3530" cx="72.632" cy="22.788" r="1.265" fx="72.632" fy="22.788" gradientTransform="matrix(28.302594,0,0,8.4878405,-1971.6274,-129.65569)" gradientUnits="userSpaceOnUse" xlink:href="#linearGradient6955"/><linearGradient id="linearGradient3532" x1="23.811" x2="29.36" y1="44.186" y2="64.895" gradientTransform="matrix(0.8949275,0,0,0.8949275,58.801978,6.486342)" gradientUnits="userSpaceOnUse" xlink:href="#linearGradient3260"/></defs><metadata id="metadata3413"/><g id="layer1"><path style="fill:none;fill-opacity:.75;fill-rule:evenodd;stroke:#000;stroke-width:4;stroke-linecap:butt;stroke-linejoin:miter;stroke-miterlimit:4;stroke-dasharray:none;stroke-opacity:1" id="path3482" d="M 12,128 L 12,0"/><path style="fill:#fff;fill-opacity:.75688076;fill-rule:nonzero;stroke:none;stroke-width:.5;stroke-linecap:round;stroke-linejoin:round;stroke-miterlimit:4;stroke-dasharray:none;stroke-dashoffset:4;stroke-opacity:1" id="path8227" d="M -378.73128,170.7101 L -378.73128,167.91539 L -378.73128,170.7101 z"/><g id="g2620" transform="translate(-168,-19.999999)"><g id="g2497"><rect id="rect3226" width="92" height="92" x="16" y="16" rx=".154" ry=".187" style="opacity:1;fill:#618fd2;fill-opacity:.09195401;stroke:none;stroke-width:.86699998;stroke-linecap:round;stroke-linejoin:round;stroke-miterlimit:4;stroke-dasharray:none;stroke-dashoffset:1.08779998;stroke-opacity:1"/><rect id="rect3281" width="59.987" height="60" x="16.013" y="16" rx="2.381" ry="2.769" transform="matrix(0,1,1,0,0,0)" style="opacity:.75;fill:url(#linearGradient2217);fill-opacity:1;fill-rule:nonzero;stroke:none;stroke-width:2;stroke-linecap:round;stroke-linejoin:round;stroke-miterlimit:4;stroke-dasharray:none;stroke-dashoffset:4;stroke-opacity:1"/><rect style="fill:url(#linearGradient2214);fill-opacity:1;fill-rule:evenodd;stroke:none;stroke-width:8;stroke-linecap:round;stroke-linejoin:round;stroke-miterlimit:4;stroke-dasharray:none;stroke-opacity:1" id="rect3283" width="51.987" height="52" x="20.013" y="20" rx="1.2" ry="1.444" transform="matrix(0,1,1,0,0,0)"/><path style="fill:url(#linearGradient2211);fill-opacity:1;fill-rule:evenodd;stroke:none;stroke-width:1px;stroke-linecap:butt;stroke-linejoin:miter;stroke-opacity:1" id="path3285" d="M 72,39.72542 C 57.857876,52.525699 42.561576,64.524776 24,71.999993 L 24,39.388448 C 41.770469,37.561939 57.823732,31.860084 72,23.999993 L 72,39.72542 z"/><path id="path2537" d="M 100,100.09852 L 82.418846,100.00024 L 82.418852,97.823773 L 91.83992,95.135012 L 31.717045,35.294679 L 34.913615,32.098109 L 95.03649,91.938442 L 97.64483,82.597791 L 99.90172,82.517373 L 100,100.09852 z" style="fill:url(#linearGradient2201);fill-opacity:1;fill-rule:evenodd;stroke:none;stroke-width:1px;stroke-linecap:butt;stroke-linejoin:miter;stroke-opacity:1"/><g style="fill:#7193c6;fill-opacity:1" id="g2250" transform="translate(-8,7.999993)"><rect id="rect3210" width="4" height="4" x="16" y="-116" rx=".077" ry="1.351" transform="matrix(0,1,-1,0,0,0)" style="opacity:1;fill:#7193c6;fill-opacity:1;stroke:none;stroke-width:.86699998;stroke-linecap:round;stroke-linejoin:round;stroke-miterlimit:4;stroke-dasharray:none;stroke-dashoffset:1.08779998;stroke-opacity:1"/><use style="fill:#7193c6;fill-opacity:1" id="use2236" width="128" height="128" x="0" y="0" transform="translate(0,8)" xlink:href="#rect3210"/><use style="fill:#7193c6;fill-opacity:1" id="use2240" width="128" height="128" x="0" y="0" transform="translate(0,16)" xlink:href="#rect3210"/><use style="fill:#7193c6;fill-opacity:1" id="use2244" width="128" height="128" x="0" y="0" transform="translate(0,24)" xlink:href="#rect3210"/><use style="fill:#7193c6;fill-opacity:1" id="use2248" width="128" height="128" x="0" y="0" transform="translate(0,32)" xlink:href="#rect3210"/><use id="use3220" width="88" height="88" x="0" y="0" transform="translate(0,24)" xlink:href="#use2240"/><use id="use3222" width="88" height="88" x="0" y="0" transform="translate(0,24)" xlink:href="#use2244"/><use id="use2230" width="128" height="128" x="0" y="0" transform="translate(0,32)" xlink:href="#use2244"/><use id="use2232" width="128" height="128" x="0" y="0" transform="translate(0,32)" xlink:href="#use2248"/><use id="use2234" width="128" height="128" x="0" y="0" transform="translate(0,32)" xlink:href="#use3220"/></g><use id="use2258" width="128" height="128" x="0" y="0" transform="matrix(8.5712909e-8,-0.9999999,0.9999999,8.5712909e-8,3.9999999e-7,123.99998)" xlink:href="#g2250"/><use id="use2314" width="128" height="128" x="0" y="0" transform="translate(-88,0)" xlink:href="#g2250"/><use id="use2316" width="128" height="128" x="0" y="0" transform="matrix(8.5712909e-8,-0.9999999,0.9999999,8.5712909e-8,7.9e-6,211.99998)" xlink:href="#g2250"/><use id="use3300" width="128" height="128" x="0" y="0" transform="translate(96,0)" xlink:href="#rect3222"/><use id="use3302" width="128" height="128" x="0" y="0" transform="translate(7.5e-6,96.000007)" xlink:href="#rect3222"/><use id="use3304" width="128" height="128" x="0" y="0" transform="translate(96,95.999997)" xlink:href="#rect3222"/><rect id="rect3222" width="12" height="12" x="8" y="-20" rx=".155" ry=".187" transform="scale(1,-1)" style="opacity:1;fill:url(#linearGradient2654);fill-opacity:1;stroke:none;stroke-width:.86699998;stroke-linecap:round;stroke-linejoin:round;stroke-miterlimit:4;stroke-dasharray:none;stroke-dashoffset:1.08779998;stroke-opacity:1"/><rect style="opacity:1;fill:#bfd9ff;fill-opacity:1;stroke:none;stroke-width:.86699998;stroke-linecap:round;stroke-linejoin:round;stroke-miterlimit:4;stroke-dasharray:none;stroke-dashoffset:1.08779998;stroke-opacity:1" id="rect2225" width="4" height="4" x="12" y="-16" rx=".155" ry=".187" transform="scale(1,-1)"/><use style="fill:#a4c0e4" id="use3226" width="88" height="88" x="0" y="0" transform="translate(96,0)" xlink:href="#rect2225"/><use style="fill:#a4c0e4" id="use3228" width="88" height="88" x="0" y="0" transform="translate(7.5e-6,96.000007)" xlink:href="#rect2225"/><use style="fill:#a4c0e4" id="use3230" width="88" height="88" x="0" y="0" transform="translate(96,96)" xlink:href="#rect2225"/></g></g><rect style="opacity:1;fill:#650000;fill-opacity:1;filter:url(#filter7195)" id="rect2664" width="20" height="20" x="8" y="12.7" rx="4.195" ry="4.195" transform="matrix(1.1932367,0,0,1.1932367,-9.4467867,33.930788)"/><rect id="rect2666" width="23.865" height="23.865" x=".099" y="48.25" rx="5.005" ry="5.005" style="opacity:1;fill:url(#linearGradient2682);fill-opacity:1"/><path id="path2668" d="M 69.875971,12.057888 C 68.798883,12.123171 67.34775,12.277052 66.875971,12.995388 L 68.465655,24.133449 L 79,23.37409 L 79,22.90534 C 81.213433,19.862705 75.05801,11.16009 69.875971,12.057888 z" clip-path="none" transform="matrix(0,-0.5966183,-0.5966183,0,30.853286,95.79943)" style="opacity:1;fill:url(#linearGradient2684);fill-opacity:1;fill-rule:evenodd;stroke:none;stroke-width:1px;stroke-linecap:butt;stroke-linejoin:miter;stroke-opacity:1;filter:url(#filter3387)"/><path style="opacity:1;fill:url(#linearGradient2686);fill-opacity:1;fill-rule:evenodd;stroke:none;stroke-width:1px;stroke-linecap:butt;stroke-linejoin:miter;stroke-opacity:1;filter:url(#filter3387)" id="path2670" d="M 69.875971,12.057888 C 68.798883,12.123171 67.34775,12.277052 66.875971,12.995388 L 68.465655,24.133449 L 78,23.37409 L 78,22.90534 C 79.740958,19.628616 74.219552,10.7392 69.875971,12.057888 z" clip-path="none" transform="matrix(-0.5966183,0,0,0.5966183,46.954137,41.401043)"/><g id="g2672" transform="matrix(1.1932367,0,0,1.1932367,-57.176254,-13.798679)" style="opacity:1"><path id="path2674" d="M 69.875971,12.057888 C 68.798883,12.123171 67.34775,12.277052 66.875971,12.995388 L 68.465655,24.133449 L 79,23.37409 L 79,22.90534 C 81.213433,19.862705 75.05801,11.16009 69.875971,12.057888 z" clip-path="none" transform="matrix(0,0.5,-0.5,0,73.773747,32.929701)" style="opacity:.4832714;fill:url(#linearGradient2688);fill-opacity:1;fill-rule:evenodd;stroke:none;stroke-width:1px;stroke-linecap:butt;stroke-linejoin:miter;stroke-opacity:1;filter:url(#filter3387)"/><path style="opacity:.4832714;fill:url(#linearGradient2690);fill-opacity:1;fill-rule:evenodd;stroke:none;stroke-width:1px;stroke-linecap:butt;stroke-linejoin:miter;stroke-opacity:1;filter:url(#filter3387)" id="path2676" d="M 69.875971,12.057888 C 68.798883,12.123171 67.34775,12.277052 66.875971,12.995388 L 68.465655,24.133449 L 78,23.37409 L 78,22.90534 C 79.740958,19.628616 74.219552,10.7392 69.875971,12.057888 z" clip-path="none" transform="matrix(-0.5,0,0,-0.5,87.267171,78.518636)"/></g><rect style="opacity:1;fill:url(#radialGradient2692);fill-opacity:1" id="rect2678" width="14.319" height="14.319" x="4.88" y="53.023" rx="1.342" ry="1.342"/><path id="path2680" d="M 6.2666523,53.022575 C 5.5229673,53.022575 4.9242613,53.621281 4.9242613,54.364966 L 4.9242613,61.132855 C 6.0122873,61.236275 7.1322973,61.300654 8.2802393,61.300654 C 12.411711,61.300654 16.212838,60.603933 19.243102,59.4269 L 19.243102,54.364966 C 19.243102,53.621281 18.644397,53.022575 17.900711,53.022575 L 6.2666523,53.022575 z" style="opacity:1;fill:url(#linearGradient2694);fill-opacity:1"/><rect style="opacity:1;fill:#7193c6;fill-opacity:1;fill-rule:nonzero;stroke:none;stroke-width:4;stroke-linecap:round;stroke-linejoin:round;stroke-miterlimit:4;stroke-dasharray:4,12;stroke-dashoffset:0;stroke-opacity:1" id="rect3492" width="8" height="8" x="-64" y="24" transform="matrix(0,-1,1,0,0,0)"/><rect id="rect3494" width="8" height="8" x="-64" y="40" transform="matrix(0,-1,1,0,0,0)" style="opacity:1;fill:#7193c6;fill-opacity:1;fill-rule:nonzero;stroke:none;stroke-width:4;stroke-linecap:round;stroke-linejoin:round;stroke-miterlimit:4;stroke-dasharray:4,12;stroke-dashoffset:0;stroke-opacity:1"/><rect style="opacity:1;fill:#7193c6;fill-opacity:1;fill-rule:nonzero;stroke:none;stroke-width:4;stroke-linecap:round;stroke-linejoin:round;stroke-miterlimit:4;stroke-dasharray:4,12;stroke-dashoffset:0;stroke-opacity:1" id="rect3496" width="4" height="4" x="-64" y="56" transform="matrix(0,-1,1,0,0,0)"/><rect id="rect3498" width="8" height="8" x="-64" y="56" transform="matrix(0,-1,1,0,0,0)" style="opacity:1;fill:#7193c6;fill-opacity:1;fill-rule:nonzero;stroke:none;stroke-width:4;stroke-linecap:round;stroke-linejoin:round;stroke-miterlimit:4;stroke-dasharray:4,12;stroke-dashoffset:0;stroke-opacity:1"/><rect style="opacity:1;fill:#7193c6;fill-opacity:1;fill-rule:nonzero;stroke:none;stroke-width:4;stroke-linecap:round;stroke-linejoin:round;stroke-miterlimit:4;stroke-dasharray:4,12;stroke-dashoffset:0;stroke-opacity:1" id="rect3500" width="8" height="40" x="-64" y="88" transform="matrix(0,-1,1,0,0,0)"/><rect id="rect3502" width="20" height="20" x="8" y="12.7" rx="4.195" ry="4.195" transform="matrix(1.1932367,0,0,1.1932367,62.553213,33.930788)" style="opacity:1;fill:#650000;fill-opacity:1;filter:url(#filter7195)"/><rect style="opacity:1;fill:url(#linearGradient3520);fill-opacity:1" id="rect3504" width="23.865" height="23.865" x="72.099" y="48.25" rx="5.005" ry="5.005"/><path style="opacity:1;fill:url(#linearGradient3522);fill-opacity:1;fill-rule:evenodd;stroke:none;stroke-width:1px;stroke-linecap:butt;stroke-linejoin:miter;stroke-opacity:1;filter:url(#filter3387)" id="path3506" d="M 69.875971,12.057888 C 68.798883,12.123171 67.34775,12.277052 66.875971,12.995388 L 68.465655,24.133449 L 79,23.37409 L 79,22.90534 C 81.213433,19.862705 75.05801,11.16009 69.875971,12.057888 z" clip-path="none" transform="matrix(0,-0.5966183,-0.5966183,0,102.85329,95.79943)"/><path id="path3508" d="M 69.875971,12.057888 C 68.798883,12.123171 67.34775,12.277052 66.875971,12.995388 L 68.465655,24.133449 L 78,23.37409 L 78,22.90534 C 79.740958,19.628616 74.219552,10.7392 69.875971,12.057888 z" clip-path="none" transform="matrix(-0.5966183,0,0,0.5966183,118.95414,41.401043)" style="opacity:1;fill:url(#linearGradient3524);fill-opacity:1;fill-rule:evenodd;stroke:none;stroke-width:1px;stroke-linecap:butt;stroke-linejoin:miter;stroke-opacity:1;filter:url(#filter3387)"/><g style="opacity:1" id="g3510" transform="matrix(1.1932367,0,0,1.1932367,14.823746,-13.798679)"><path style="opacity:.4832714;fill:url(#linearGradient3526);fill-opacity:1;fill-rule:evenodd;stroke:none;stroke-width:1px;stroke-linecap:butt;stroke-linejoin:miter;stroke-opacity:1;filter:url(#filter3387)" id="path3512" d="M 69.875971,12.057888 C 68.798883,12.123171 67.34775,12.277052 66.875971,12.995388 L 68.465655,24.133449 L 79,23.37409 L 79,22.90534 C 81.213433,19.862705 75.05801,11.16009 69.875971,12.057888 z" clip-path="none" transform="matrix(0,0.5,-0.5,0,73.773747,32.929701)"/><path id="path3514" d="M 69.875971,12.057888 C 68.798883,12.123171 67.34775,12.277052 66.875971,12.995388 L 68.465655,24.133449 L 78,23.37409 L 78,22.90534 C 79.740958,19.628616 74.219552,10.7392 69.875971,12.057888 z" clip-path="none" transform="matrix(-0.5,0,0,-0.5,87.267171,78.518636)" style="opacity:.4832714;fill:url(#linearGradient3528);fill-opacity:1;fill-rule:evenodd;stroke:none;stroke-width:1px;stroke-linecap:butt;stroke-linejoin:miter;stroke-opacity:1;filter:url(#filter3387)"/></g><rect id="rect3516" width="14.319" height="14.319" x="76.88" y="53.023" rx="1.342" ry="1.342" style="opacity:1;fill:url(#radialGradient3530);fill-opacity:1"/><path style="opacity:1;fill:url(#linearGradient3532);fill-opacity:1" id="path3518" d="M 78.266652,53.022575 C 77.522967,53.022575 76.924261,53.621281 76.924261,54.364966 L 76.924261,61.132855 C 78.012287,61.236275 79.132297,61.300654 80.280239,61.300654 C 84.411711,61.300654 88.212838,60.603933 91.243102,59.4269 L 91.243102,54.364966 C 91.243102,53.621281 90.644397,53.022575 89.900711,53.022575 L 78.266652,53.022575 z"/></g></svg>