<svg xmlns="http://www.w3.org/2000/svg" xmlns:svg="http://www.w3.org/2000/svg" id="svg864" width="22" height="22" version="1.1"><metadata id="metadata870"/><defs id="defs868"><marker id="Arrow1Lend" orient="auto" refX="0" refY="0" style="overflow:visible"><path id="path1260" d="M 0,0 5,-5 -12.5,0 5,5 0,0 Z" transform="matrix(-0.8,0,0,-0.8,-10,0)" style="fill:#000;fill-opacity:1;fill-rule:evenodd;stroke:#000;stroke-width:1pt;stroke-opacity:1"/></marker><marker id="marker5177" orient="auto" refX="0" refY="0" style="overflow:visible"><path id="path5179" d="M 0,0 5,-5 -12.5,0 5,5 0,0 Z" transform="matrix(0.8,0,0,0.8,10,0)" style="fill:#fff;fill-opacity:1;fill-rule:evenodd;stroke:#000;stroke-width:1pt;stroke-opacity:1"/></marker><marker id="Scissors" orient="auto" refX="0" refY="0" style="overflow:visible"><path id="schere" d="M 9.0898857,-3.6061018 C 8.1198849,-4.7769976 6.3697607,-4.7358294 5.0623558,-4.2327734 l -8.2124046,3.0779029 c -2.3882933,-1.3067135 -4.7482873,-0.9325372 -4.7482873,-1.5687873 0,-0.4973164 0.4566662,-0.3883222 0.3883068,-1.6831941 -0.065635,-1.2432767 -1.3635771,-2.1630796 -2.5903987,-2.0816435 -1.227271,-0.00735 -2.499439,0.9331613 -2.510341,2.2300611 -0.09143,1.3063864 1.007209,2.5196896 2.306764,2.6052316 1.5223406,0.2266616 4.218258,-0.6955566 5.482945,1.57086006 -0.9422847,1.73825774 -2.6140244,1.74307674 -4.1255107,1.65607034 -1.2548743,-0.072235 -2.7620933,0.2873979 -3.3606483,1.5208605 -0.578367,1.1820862 -0.0112,2.8646022 1.316749,3.226412 1.3401912,0.4918277 3.1806689,-0.129711 3.4993722,-1.6707242 0.2456585,-1.187823 -0.5953659,-1.7459574 -0.2725074,-2.1771537 0.2436135,-0.32536 1.7907806,-0.1368452 4.5471053,-1.3748244 L 5.6763468,4.2330688 C 6.8000164,4.5467672 8.1730685,4.5362646 9.1684433,3.4313614" style="fill:#fff;fill-opacity:1;stroke:#000;stroke-opacity:1"/></marker><marker id="StopS" orient="auto" refX="0" refY="0" style="overflow:visible"><path id="path5070" d="M 0,5.65 0,-5.65" transform="scale(0.2,0.2)" style="fill:#fff;fill-opacity:1;fill-rule:evenodd;stroke:#000;stroke-width:1pt;stroke-opacity:1"/></marker><marker id="EmptyDiamondMstart" orient="auto" refX="0" refY="0" style="overflow:visible"><path id="path5013" d="M 0,-7.0710768 -7.0710894,0 0,7.0710589 7.0710462,0 0,-7.0710768 Z" transform="matrix(0.4,0,0,0.4,2.6,0)" style="fill:#fff;fill-opacity:1;fill-rule:evenodd;stroke:#000;stroke-width:1pt;stroke-opacity:1"/></marker><marker id="EmptyDiamondSstart" orient="auto" refX="0" refY="0" style="overflow:visible"><path id="path5016" d="M 0,-7.0710768 -7.0710894,0 0,7.0710589 7.0710462,0 0,-7.0710768 Z" transform="matrix(0.2,0,0,0.2,1.2,0)" style="fill:#fff;fill-opacity:1;fill-rule:evenodd;stroke:#000;stroke-width:1pt;stroke-opacity:1"/></marker><marker id="TriangleInL" orient="auto" refX="0" refY="0" style="overflow:visible"><path id="path5028" d="m 5.77,0 -8.65,5 0,-10 L 5.77,0 Z" transform="scale(-0.8,-0.8)" style="fill:#fff;fill-opacity:1;fill-rule:evenodd;stroke:#000;stroke-width:1pt;stroke-opacity:1"/></marker><marker id="marker5163" orient="auto" refX="0" refY="0" style="overflow:visible"><path id="path5165" d="M 0,0 5,-5 -12.5,0 5,5 0,0 Z" transform="matrix(0.8,0,0,0.8,10,0)" style="fill:#fff;fill-opacity:1;fill-rule:evenodd;stroke:#000;stroke-width:1pt;stroke-opacity:1"/></marker><marker id="Arrow2Lstart" orient="auto" refX="0" refY="0" style="overflow:visible"><path id="path4913" d="M 8.7185878,4.0337352 -2.2072895,0.01601326 8.7185884,-4.0017078 C 6.97309,-1.6296469 6.9831476,1.6157441 8.7185878,4.0337352 Z" transform="matrix(1.1,0,0,1.1,1.1,0)" style="fill:#fff;fill-opacity:1;fill-rule:evenodd;stroke:#000;stroke-width:.625;stroke-linejoin:round;stroke-opacity:1"/></marker><marker id="marker5157" orient="auto" refX="0" refY="0" style="overflow:visible"><path id="path5159" d="M 8.7185878,4.0337352 -2.2072895,0.01601326 8.7185884,-4.0017078 C 6.97309,-1.6296469 6.9831476,1.6157441 8.7185878,4.0337352 Z" transform="matrix(-1.1,0,0,-1.1,-1.1,0)" style="fill:#fff;fill-opacity:1;fill-rule:evenodd;stroke:#000;stroke-width:.625;stroke-linejoin:round;stroke-opacity:1"/></marker><marker id="Arrow1Mend" orient="auto" refX="0" refY="0" style="overflow:visible"><path id="path4904" d="M 0,0 5,-5 -12.5,0 5,5 0,0 Z" transform="matrix(-0.4,0,0,-0.4,-4,0)" style="fill:#fff;fill-opacity:1;fill-rule:evenodd;stroke:#000;stroke-width:1pt;stroke-opacity:1"/></marker><marker id="Arrow1Lstart" orient="auto" refX="0" refY="0" style="overflow:visible"><path id="path4895" d="M 0,0 5,-5 -12.5,0 5,5 0,0 Z" transform="matrix(0.8,0,0,0.8,10,0)" style="fill:#fff;fill-opacity:1;fill-rule:evenodd;stroke:#000;stroke-width:1pt;stroke-opacity:1"/></marker><marker id="Arrow2Lend" orient="auto" refX="0" refY="0" style="overflow:visible"><path id="path4916" d="M 8.7185878,4.0337352 -2.2072895,0.01601326 8.7185884,-4.0017078 C 6.97309,-1.6296469 6.9831476,1.6157441 8.7185878,4.0337352 Z" transform="matrix(-1.1,0,0,-1.1,-1.1,0)" style="fill:#fff;fill-opacity:1;fill-rule:evenodd;stroke:#000;stroke-width:.625;stroke-linejoin:round;stroke-opacity:1"/></marker></defs><path style="fill:#fff;fill-opacity:1;stroke:#fff;stroke-width:1;stroke-linecap:round;stroke-linejoin:round;stroke-miterlimit:4;stroke-opacity:1;stroke-dasharray:none;stroke-dashoffset:0" id="path5789" d="M 20.5,0.46875 6.4375,0.5625 A 0.94902599,0.94902599 0 0 0 5.5,1.5 l 0.03125,5.96875 a 0.94902599,0.94902599 0 0 0 0.9375,0.9375 l 3.5625,0 -1.28125,2.6875 a 0.94902599,0.94902599 0 0 0 1.40625,1.1875 l 5.4375,-3.875 4.875,0 a 0.94902599,0.94902599 0 0 0 0.9375,-0.9375 L 21.4375,1.40625 A 0.94902599,0.94902599 0 0 0 20.5,0.46875 Z" transform="translate(0.08400457,0.05785811)"/><path style="fill:#ff0;fill-opacity:1;stroke:#000;stroke-width:1;stroke-linecap:round;stroke-linejoin:round;stroke-miterlimit:4;stroke-opacity:1;stroke-dasharray:none;stroke-dashoffset:0" id="path5769" d="M 20.5,1.40625 6.4375,1.5 6.46875,7.46875 11.5,7.46875 9.59375,11.5 15.25,7.46875 l 5.21875,0 L 20.5,1.40625 Z"/><path style="fill:none;stroke:red;stroke-width:2;stroke-linecap:butt;stroke-linejoin:miter;stroke-miterlimit:4;stroke-opacity:1;stroke-dasharray:4,2;stroke-dashoffset:0" id="path2370" d="M 0.82663738,20.00691 9.9959834,20.03204"/><g style="font-size:10.35105133px;font-style:normal;font-variant:normal;font-weight:400;font-stretch:normal;line-height:125%;letter-spacing:0;word-spacing:0;fill:#fff;fill-opacity:1;stroke:none;font-family:Liberation Sans;-inkscape-font-specification:Liberation Sans" id="text2351-5-4" transform="matrix(1.0206197,0,0,0.98222074,6.3930028,1.0300449)"><path id="path5727" d="M 4.84375,11.21875 A 1.0172915,1.0172915 0 0 0 3.90625,11.875 L 1,19 a 1.0172915,1.0172915 0 0 0 0.9375,1.40625 l 1,0 A 1.0172915,1.0172915 0 0 0 3.875,19.75 l 0.5625,-1.40625 1.90625,0 0.5625,1.40625 a 1.0172915,1.0172915 0 0 0 0.9375,0.65625 l 0.96875,0 A 1.0172915,1.0172915 0 0 0 9.75,19 L 6.90625,11.875 A 1.0172915,1.0172915 0 0 0 5.96875,11.21875 L 4.84375,11.21875 Z" transform="translate(-6.280171,-2.1322715)" style="fill:#fff;fill-opacity:1"/></g><g style="font-size:10.35105133px;font-style:normal;font-variant:normal;font-weight:400;font-stretch:normal;line-height:125%;letter-spacing:0;word-spacing:0;fill:#000;fill-opacity:1;stroke:none;font-family:Liberation Sans;-inkscape-font-specification:Liberation Sans" id="text2351" transform="matrix(1.0206197,0,0,0.98222074,-0.02301496,-1.0423722)"><path id="path5628" d="m 7.8294678,19.380388 -0.8137301,-2.08234 -3.244812,0 -0.8187843,2.08234 -1.0007364,0 2.906179,-7.121402 1.0967666,0 2.860691,7.121402 L 7.8294678,19.380388 Z M 5.8128324,14.194754 q -0.080868,-0.202169 -0.156681,-0.409392 -0.070759,-0.207223 -0.1263556,-0.374013 -0.055596,-0.171843 -0.09603,-0.283036 -0.035379,-0.116247 -0.040434,-0.141518 -0.010108,0.02527 -0.045488,0.141518 -0.03538,0.116247 -0.09603,0.288091 -0.055597,0.171843 -0.1314099,0.379066 -0.070759,0.207224 -0.1465725,0.409393 l -0.9097603,2.340105 2.6635762,0 L 5.8128324,14.194754 Z"/></g></svg>