<svg xmlns="http://www.w3.org/2000/svg" xmlns:xlink="http://www.w3.org/1999/xlink" id="Layer_1" x="0" y="0" enable-background="new 0 0 48 48" version="1.1" viewBox="0 0 48 48" xml:space="preserve"><switch><g><g><path fill="#C1CDD1" d="M24,21.4c1.4,0,2.6,1.2,2.6,2.6c0,1.4-1.2,2.6-2.6,2.6c-1.4,0-2.6-1.2-2.6-2.6 C21.4,22.6,22.6,21.4,24,21.4 M24,18.8c-2.9,0-5.2,2.3-5.2,5.2c0,2.9,2.3,5.2,5.2,5.2c2.9,0,5.2-2.3,5.2-5.2 C29.2,21.1,26.9,18.8,24,18.8L24,18.8z"/><path fill="#C1CDD1" d="M24,16.2c-0.7,0-1.3-0.6-1.3-1.3v-2.6c0-0.7,0.6-1.3,1.3-1.3c0.7,0,1.3,0.6,1.3,1.3v2.6 C25.3,15.6,24.7,16.2,24,16.2L24,16.2z"/><path fill="#C1CDD1" d="M30.4,18.9c-0.3,0-0.7-0.1-0.9-0.4c-0.5-0.5-0.5-1.3,0-1.8l1.8-1.8c0.5-0.5,1.3-0.5,1.8,0 c0.5,0.5,0.5,1.3,0,1.8l-1.8,1.8C31.1,18.7,30.8,18.9,30.4,18.9L30.4,18.9z"/><path fill="#C1CDD1" d="M35.7,25.3h-2.6c-0.7,0-1.3-0.6-1.3-1.3c0-0.7,0.6-1.3,1.3-1.3h2.6c0.7,0,1.3,0.6,1.3,1.3 C37,24.7,36.4,25.3,35.7,25.3L35.7,25.3z"/><path fill="#C1CDD1" d="M32.3,33.6c-0.3,0-0.7-0.1-0.9-0.4l-1.8-1.8c-0.5-0.5-0.5-1.3,0-1.8c0.5-0.5,1.3-0.5,1.8,0l1.8,1.8 c0.5,0.5,0.5,1.3,0,1.8C32.9,33.4,32.6,33.6,32.3,33.6L32.3,33.6z"/><path fill="#C1CDD1" d="M24,37c-0.7,0-1.3-0.6-1.3-1.3v-2.6c0-0.7,0.6-1.3,1.3-1.3c0.7,0,1.3,0.6,1.3,1.3v2.6 C25.3,36.4,24.7,37,24,37L24,37z"/><path fill="#C1CDD1" d="M15.7,33.6c-0.3,0-0.7-0.1-0.9-0.4c-0.5-0.5-0.5-1.3,0-1.8l1.8-1.8c0.5-0.5,1.3-0.5,1.8,0 c0.5,0.5,0.5,1.3,0,1.8l-1.8,1.8C16.4,33.4,16.1,33.6,15.7,33.6L15.7,33.6z"/><path fill="#C1CDD1" d="M14.9,25.3h-2.6c-0.7,0-1.3-0.6-1.3-1.3c0-0.7,0.6-1.3,1.3-1.3h2.6c0.7,0,1.3,0.6,1.3,1.3 C16.2,24.7,15.6,25.3,14.9,25.3L14.9,25.3z"/><path fill="#C1CDD1" d="M17.6,18.9c-0.3,0-0.7-0.1-0.9-0.4l-1.8-1.8c-0.5-0.5-0.5-1.3,0-1.8c0.5-0.5,1.3-0.5,1.8,0l1.8,1.8 c0.5,0.5,0.5,1.3,0,1.8C18.2,18.7,17.9,18.9,17.6,18.9L17.6,18.9z"/></g></g></switch></svg>