<svg xmlns="http://www.w3.org/2000/svg" xmlns:xlink="http://www.w3.org/1999/xlink" id="Layer_1" x="0" y="0" enable-background="new 0 0 48 48" version="1.1" viewBox="0 0 48 48" xml:space="preserve"><switch><g><g><g><path fill="#5B6573" fill-rule="evenodd" d="M2,47c0,0.6,0.4,1,1,1h2c0.6,0,1-0.4,1-1v-0.4H2V47z M22,47 c0,0.6,0.4,1,1,1h2c0.6,0,1-0.4,1-1v-0.4h-4V47z M14,33c-2.8,0-5,2.2-5,5s2.2,5,5,5c2.8,0,5-2.2,5-5S16.8,33,14,33z M14,41 c-1.7,0-3-1.3-3-3c0-1.7,1.3-3,3-3c1.7,0,3,1.3,3,3C17,39.7,15.7,41,14,41z M26,30H2c-1.1,0-2,0.9-2,2v12c0,1.1,0.9,2,2,2h24 c1.1,0,2-0.9,2-2V32C28,30.9,27.1,30,26,30z M14,44c-3.3,0-6-2.7-6-6c0-3.3,2.7-6,6-6c3.3,0,6,2.7,6,6C20,41.3,17.3,44,14,44z" clip-rule="evenodd"/></g></g><path fill="#5B6573" d="M42,2H13C9.7,2,7,4.7,7,8v21h2V8c0-2.2,1.8-4,4-4h29c2.2,0,4,1.8,4,4v29c0,2.2-1.8,4-4,4H29v2h13 c3.3,0,6-2.7,6-6V8C48,4.7,45.3,2,42,2z"/><rect width="30" height="20" x="2" y="26" fill="none"/><path fill="#5B6573" d="M11,13v16h2V15h29v15H29c0.1,0.2,0,0.5,0,0.8V32h15V13H11z"/></g></switch></svg>