<svg xmlns="http://www.w3.org/2000/svg" xmlns:xlink="http://www.w3.org/1999/xlink" id="Layer_1" x="0" y="0" enable-background="new 0 0 48 48" version="1.1" viewBox="0 0 48 48" xml:space="preserve"><switch><g><g opacity=".6"><path fill="#5B6573" fill-rule="evenodd" d="M42,42h-2V28.8c0-1.6-1.3-2.8-2.8-2.8H12.8 c-1.6,0-2.8,1.3-2.8,2.8V42H8c-1.7,0-3-1.3-3-3L3,14c0-1.7,1.3-3,3-3h22.2c0.4,0,0.8-0.4,0.8-0.8V8c0-1.7,1.3-3,3-3h10 c1.7,0,3,1.3,3,3v6v1v24C45,40.7,43.7,42,42,42z M18,10c0-1.7,1.3-3,3-3h4c1.7,0,3,1.3,3,3l0,0H18L18,10z M7,10c0-1.7,1.3-3,3-3 h4c1.7,0,3,1.3,3,3l0,0H7L7,10z M34,42H16V32h18V42z" clip-rule="evenodd"/></g><g><path fill="#5B6573" fill-rule="evenodd" d="M35,45l-2-2h2V31H15v12h2l-2,2h-4V29c0-1.1,0.9-2,2-2h24 c1.1,0,2,0.9,2,2v16H35z" clip-rule="evenodd"/></g></g></switch></svg>