<svg xmlns="http://www.w3.org/2000/svg" xmlns:xlink="http://www.w3.org/1999/xlink" id="Layer_1" x="0" y="0" enable-background="new 0 0 48 48" version="1.1" viewBox="0 0 48 48" xml:space="preserve"><switch><g><path fill="#5B6573" d="M24,6c9.9,0,18,8.1,18,18s-8.1,18-18,18S6,33.9,6,24S14.1,6,24,6 M24,4C13,4,4,13,4,24s9,20,20,20 s20-9,20-20S35,4,24,4L24,4z"/><path fill="#5B6573" fill-rule="evenodd" d="M17,23h15v2H17V23z" clip-rule="evenodd"/><polygon fill="#5B6573" points="23.3 32.7 14.6 24 23.3 15.3 24.7 16.7 17.4 24 24.7 31.3"/></g></switch></svg>