<svg xmlns="http://www.w3.org/2000/svg" xmlns:xlink="http://www.w3.org/1999/xlink" id="Layer_1" x="0" y="0" enable-background="new 0 0 48 48" version="1.1" viewBox="0 0 48 48" xml:space="preserve"><switch><g><g><g><path fill="#5B6573" fill-rule="evenodd" d="M28.6,40.1l-6.2-23.2c-0.4-1.6-2.1-2.6-3.7-2.1L3.3,18.9 c-1.6,0.4-2.6,2.1-2.1,3.7l6.2,23.2c0.4,1.6,2.1,2.6,3.7,2.1l15.5-4.1C28.1,43.3,29,41.7,28.6,40.1z M22.1,27.3 c0.3,1.1-0.3,2.2-1.4,2.4c-1.1,0.3-2.2-0.3-2.4-1.4c-0.3-1.1,0.3-2.2,1.4-2.4C20.7,25.6,21.8,26.3,22.1,27.3z M5.1,25.7 l-0.8-2.9c-0.1-0.5,0.2-1.1,0.7-1.2l13.5-3.6c0.5-0.1,1.1,0.2,1.2,0.7l0.8,2.9c0.1,0.5-0.2,1.1-0.7,1.2L6.3,26.4 C5.8,26.5,5.2,26.2,5.1,25.7z M14.9,31.3c-1.1,0.3-2.2-0.3-2.4-1.4c-0.3-1.1,0.3-2.2,1.4-2.4s2.2,0.3,2.4,1.4 C16.6,30,15.9,31.1,14.9,31.3z M6.6,31.5C6.3,30.4,7,29.3,8,29c1.1-0.3,2.2,0.3,2.4,1.4c0.3,1.1-0.3,2.2-1.4,2.4 C8,33.2,6.9,32.5,6.6,31.5z M8.2,37.3c-0.3-1.1,0.3-2.2,1.4-2.4c1.1-0.3,2.2,0.3,2.4,1.4c0.3,1.1-0.3,2.2-1.4,2.4 C9.6,39,8.5,38.3,8.2,37.3z M12.2,44.5c-1.1,0.3-2.2-0.3-2.4-1.4c-0.3-1.1,0.3-2.2,1.4-2.4s2.2,0.3,2.4,1.4 C13.9,43.1,13.3,44.2,12.2,44.5z M14,35.7c-0.3-1.1,0.3-2.2,1.4-2.4c1.1-0.3,2.2,0.3,2.4,1.4c0.3,1.1-0.3,2.2-1.4,2.4 S14.3,36.8,14,35.7z M18,42.9c-1.1,0.3-2.2-0.3-2.4-1.4c-0.3-1.1,0.3-2.2,1.4-2.4c1.1-0.3,2.2,0.3,2.4,1.4 C19.7,41.5,19,42.6,18,42.9z M19.8,34.2c-0.3-1.1,0.3-2.2,1.4-2.4c1.1-0.3,2.2,0.3,2.4,1.4c0.3,1.1-0.3,2.2-1.4,2.4 C21.2,35.9,20.1,35.2,19.8,34.2z M23.8,41.4c-1.1,0.3-2.2-0.3-2.4-1.4c-0.3-1.1,0.3-2.2,1.4-2.4c1.1-0.3,2.2,0.3,2.4,1.4 C25.5,40,24.8,41.1,23.8,41.4z" clip-rule="evenodd"/></g></g><g><path fill="#5B6573" d="M28.5,42L28.5,42c0.1-0.2,0.2-0.5,0.2-0.7C28.6,41.5,28.6,41.8,28.5,42z"/><path fill="#5B6573" d="M10,0v15.6l2-0.5V2h31v38H30.1c0.1,0.7,0.1,1.3-0.1,2h15V0H10z"/></g><g><path fill="#5B6573" fill-rule="evenodd" d="M22.1,16L22.1,16c-0.1-0.1-0.1-0.2-0.2-0.3 C22,15.8,22,15.9,22.1,16z" clip-rule="evenodd" opacity=".6"/><path fill="#5B6573" fill-rule="evenodd" d="M21.5,15.3c0.1,0.1,0.2,0.2,0.2,0.3 C21.7,15.5,21.6,15.4,21.5,15.3z" clip-rule="evenodd" opacity=".6"/><path fill="#5B6573" fill-rule="evenodd" d="M21.4,15.2c-0.1-0.1-0.2-0.1-0.3-0.2h0 C21.2,15.1,21.3,15.1,21.4,15.2z" clip-rule="evenodd" opacity=".6"/><path fill="#5B6573" fill-rule="evenodd" d="M42,10V9h-6h-1h-7h-1h-7h-1h-6v1h6v3 c0.2,0,0.3,0,0.5,0h0c0.2,0,0.3,0,0.5,0v-3h7v5h-3.8c0.2,0.3,0.4,0.6,0.5,1H27v5h-1.9l0.3,1H27v5h-0.3l0.3,1h0v0.1l1,3.7V28h7v5 h-6.7l0.3,1H35v5h1v-5h6v-1h-6v-5h6v-1h-6v-5h6v-1h-6v-5h6v-1h-6v-5H42z M35,27h-7v-5h7V27z M35,21h-7v-5h7V21z M35,15h-7v-5h7 V15z" clip-rule="evenodd" opacity=".6"/><path fill="#5B6573" fill-rule="evenodd" d="M19.4,14.5c0.1,0,0.2,0,0.4,0 C19.7,14.5,19.6,14.5,19.4,14.5C19.5,14.5,19.5,14.5,19.4,14.5z" clip-rule="evenodd" opacity=".6"/><path fill="#5B6573" fill-rule="evenodd" d="M20,14.6L20,14.6C20,14.5,20,14.5,20,14.6 C20,14.5,20,14.5,20,14.6z" clip-rule="evenodd" opacity=".6"/></g><rect width="18.8" height="7" x="3.6" y="18.9" fill="#5B6573" fill-rule="evenodd" clip-rule="evenodd" opacity=".4" transform="matrix(0.9734 -0.229 0.229 0.9734 -4.7944 3.5656)"/></g></switch></svg>