<svg xmlns="http://www.w3.org/2000/svg" xmlns:xlink="http://www.w3.org/1999/xlink" id="Layer_1" x="0" y="0" enable-background="new 0 0 40 40" version="1.1" viewBox="0 0 40 40" xml:space="preserve"><switch><g><rect width="23.3" height="23.3" x="5" y="5" fill="#C1CDD1"/><polygon fill="#C1CDD1" points="30.3 11.7 10.8 31.1 10.8 32.3 31.5 11.7"/><polygon fill="#C1CDD1" points="34.2 12 11.1 35 12.3 35 34.2 13.1"/><polygon fill="#C1CDD1" points="34.2 16.1 15.3 35 16.5 35 34.2 17.3"/><polygon fill="#C1CDD1" points="34.2 20.3 19.5 35 20.9 34.8 34.2 21.7"/><polygon fill="#C1CDD1" points="34.2 24.5 23.6 35 24.8 35 34.2 25.6"/><polygon fill="#C1CDD1" points="34.2 28.6 27.8 35 29 35 34.2 29.8"/><polygon fill="#C1CDD1" points="34.2 32.8 32 35 33.1 35 34.2 34"/></g></switch></svg>