<svg xmlns="http://www.w3.org/2000/svg" xmlns:xlink="http://www.w3.org/1999/xlink" id="Layer_1" x="0" y="0" enable-background="new 0 0 48 48" version="1.1" viewBox="0 0 48 48" xml:space="preserve"><switch><g><g><path fill="#5B6573" d="M24,8c8.8,0,16,7.2,16,16s-7.2,16-16,16c-8.8,0-16-7.2-16-16S15.2,8,24,8 M24,5C13.5,5,5,13.5,5,24 s8.5,19,19,19s19-8.5,19-19S34.5,5,24,5L24,5z"/></g><g><path fill="#5B6573" d="M26.6,24.8c0.1-0.2,0.1-0.4,0.1-0.7c0-1-0.5-1.9-1.4-2.3v-8.5c0-0.8-0.6-1.4-1.4-1.4 c-0.8,0-1.4,0.6-1.4,1.4v8.5c-0.8,0.5-1.4,1.3-1.4,2.3c0,1.5,1.2,2.7,2.7,2.7c0.2,0,0.5,0,0.7-0.1l3.7,3.7c0.5,0.5,1.4,0.5,1.9,0 c0.5-0.5,0.5-1.4,0-1.9L26.6,24.8z"/></g></g></switch></svg>