<svg xmlns="http://www.w3.org/2000/svg" xmlns:xlink="http://www.w3.org/1999/xlink" id="Layer_1" x="0" y="0" enable-background="new 0 0 144 144" version="1.1" viewBox="0 0 144 144" xml:space="preserve"><switch><g><g opacity=".5"><path fill="#C1CDD1" d="M41.4,118.3h2.9l4.9,8.8l1.6,3.3h0.1c-0.1-1.6-0.4-3.6-0.4-5.4v-6.8h2.7V134h-2.9l-4.9-8.8l-1.6-3.3h-0.1 c0.1,1.7,0.4,3.6,0.4,5.3v6.9h-2.7V118.3z"/><path fill="#C1CDD1" d="M56.2,122.2H59v7c0,1.9,0.6,2.7,1.8,2.7c1,0,1.7-0.5,2.6-1.6v-8.1h2.8V134h-2.3l-0.2-1.7h-0.1 c-1,1.2-2.2,2-3.8,2c-2.5,0-3.6-1.7-3.6-4.7V122.2z"/><path fill="#C1CDD1" d="M73.4,121.9c1.3,0,2.2,0.5,3.1,1.3l-0.1-1.9v-4.3h2.8V134h-2.3l-0.2-1.3h-0.1c-0.9,0.9-2.1,1.6-3.3,1.6 c-3,0-4.8-2.3-4.8-6.2C68.4,124.3,70.8,121.9,73.4,121.9z M73.9,132c0.9,0,1.7-0.4,2.5-1.3v-5.5c-0.8-0.7-1.6-1-2.4-1 c-1.5,0-2.7,1.4-2.7,3.9C71.2,130.6,72.2,132,73.9,132z"/><path fill="#C1CDD1" d="M82.9,133.6L82.9,133.6c-0.6-0.5-1.1-1.1-1.1-2.1c0-0.9,0.6-1.7,1.3-2.2v-0.1c-0.8-0.6-1.5-1.7-1.5-3.1 c0-2.7,2.2-4.2,4.7-4.2c0.6,0,1.2,0.1,1.7,0.3h4.2v2h-2.2c0.4,0.5,0.7,1.2,0.7,2c0,2.6-2,4-4.5,4c-0.5,0-1.1-0.1-1.6-0.3 c-0.4,0.3-0.6,0.6-0.6,1.1c0,0.7,0.5,1.1,1.9,1.1h2.1c2.8,0,4.3,0.9,4.3,2.9c0,2.3-2.4,4.2-6.3,4.2c-2.8,0-4.9-1-4.9-3.1 C81.2,135.2,81.8,134.3,82.9,133.6z M86.6,137.4c1.9,0,3.2-0.9,3.2-1.9c0-0.9-0.7-1.2-2.1-1.2h-1.6c-0.6,0-1.2,0-1.6-0.2 c-0.6,0.5-0.9,1-0.9,1.6C83.5,136.8,84.7,137.4,86.6,137.4z M88.3,126.2c0-1.5-0.9-2.3-2-2.3c-1.2,0-2.1,0.8-2.1,2.3 c0,1.5,0.9,2.4,2.1,2.4C87.4,128.5,88.3,127.7,88.3,126.2z"/><path fill="#C1CDD1" d="M98.2,121.9c3.2,0,4.9,2.3,4.9,5.6c0,0.5,0,1-0.1,1.3h-7.5c0.2,2.1,1.6,3.3,3.5,3.3c1,0,1.9-0.3,2.7-0.9 l0.9,1.7c-1.1,0.7-2.5,1.3-4,1.3c-3.3,0-5.8-2.3-5.8-6.2C92.8,124.3,95.4,121.9,98.2,121.9z M100.7,127.1c0-1.9-0.8-3-2.4-3 c-1.4,0-2.6,1-2.8,3H100.7z"/></g><path fill="#C1CDD1" d="M117.5,108.3c-0.2-22.2-7.5-46.4-7.5-46.4c-0.9-3.5-4.1-5.9-7.6-5.9c-0.7,0-1.4,0.1-2,0.3 c-1.8,0.5-3.2,1.5-4.3,2.9c-1.3-2.8-4.1-4.5-7.1-4.5c-0.7,0-1.4,0.1-2,0.3c-1.9,0.5-3.5,1.7-4.5,3.3c-1.5-2.1-3.9-3.3-6.4-3.3 c-0.7,0-1.4,0.1-2,0.3c-2.5,0.7-4.4,2.5-5.3,4.7l-7.2-26.8c-0.9-3.5-4.1-5.9-7.6-5.9c-0.7,0-1.4,0.1-2,0.3 c-4.2,1.1-6.7,5.4-5.6,9.6l14.6,54.5c0.2,0.9,1,1.5,1.9,1.5h0c1.3,0,2.2-1.2,1.9-2.5L50.1,36c-0.6-2.1,0.7-4.2,2.8-4.8 c0.3-0.1,0.7-0.1,1-0.1c1.8,0,3.3,1.2,3.8,2.9l7.2,26.8c0.4,1.7,1.9,2.9,3.6,3c0.1,0,0.2,0,0.2,0c1.6,0,3.1-1,3.7-2.5 c0.5-1.2,1.4-2,2.6-2.3c0.3-0.1,0.7-0.1,1-0.1c1.2,0,2.3,0.4,3,1.4c0.8,1,2,1.7,3.4,1.7h0.1c1.3,0,2.5-0.6,3.3-1.7 c0.4-0.6,1.1-1.3,2.2-1.6c0.3-0.1,0.7-0.1,1-0.1c1.5,0,2.9,0.9,3.5,2.2c0.6,1.3,1.8,2.1,3.2,2.3c0.1,0,0.3,0,0.4,0 c1.3,0,2.4-0.6,3.2-1.6c0.4-0.5,1-1.1,2.1-1.4c0.3-0.1,0.7-0.1,1-0.1c1.8,0,3.3,1.2,3.8,2.9c0,0,0,0.1,0,0.1 c0.1,0.2,7.1,23.9,7.3,45.3l0,0.4c0,0.5,0,0.9,0,1.3h4C117.5,109.2,117.5,108.5,117.5,108.3z"/><path fill="#C1CDD1" d="M61.7,110c-5-7.2-8.5-13.9-8.9-17.3c-1-8.2,1.9-15.9,1.9-16c0.4-1-0.1-2.2-1.1-2.6c-1-0.4-2.2,0.1-2.6,1.1 c-0.1,0.3-3.3,8.7-2.1,17.9c0.5,3.7,3.4,9.8,8,16.8H61.7z"/><g opacity=".5"><path fill="#15BDF6" d="M49.9,57.7C39.2,55.8,31,46.4,31,35.2c0-12.6,10.2-22.8,22.8-22.8s22.8,10.2,22.8,22.8 c0,6.8-3,12.9-7.7,17.1l0.6,2.1c5.6-4.6,9.2-11.5,9.2-19.3c0-13.7-11.1-24.8-24.8-24.8S29,21.5,29,35.2 c0,12.5,9.4,22.9,21.5,24.6L49.9,57.7z"/></g><g opacity=".75"><path fill="#15BDF6" d="M48.5,52.5c-7.4-2.2-12.8-9.1-12.8-17.3c0-9.9,8.1-18,18-18c9.9,0,18,8.1,18,18c0,4.4-1.6,8.5-4.3,11.6 l0.6,2.3c3.5-3.6,5.7-8.5,5.7-13.9c0-11-9-20-20-20s-20,9-20,20c0,9.5,6.6,17.4,15.4,19.5L48.5,52.5z"/></g><g><path fill="#15BDF6" d="M46.8,46.5c-3.7-2.3-6.1-6.4-6.1-11.1c0-7.2,5.9-13.1,13.1-13.1c7.2,0,13.1,5.9,13.1,13.1 c0,1.9-0.4,3.7-1.2,5.4l0.7,2.8c1.5-2.4,2.4-5.2,2.4-8.2c0-8.3-6.8-15.1-15.1-15.1s-15.1,6.8-15.1,15.1c0,6.1,3.6,11.3,8.8,13.7 L46.8,46.5z"/></g></g></switch></svg>