<svg xmlns="http://www.w3.org/2000/svg" xmlns:xlink="http://www.w3.org/1999/xlink" width="48" height="48"><defs><linearGradient id="a" x1="27" x2="21" y1="42" y2="38" gradientUnits="userSpaceOnUse"><stop stop-color="#95a5a6"/><stop offset="1" stop-color="#eff0f1"/></linearGradient><linearGradient id="b" x2="0" y1="38" y2="13" gradientUnits="userSpaceOnUse"><stop stop-color="#f39c12"/><stop offset="1" stop-color="#f5ab35"/></linearGradient><linearGradient id="c" x1="12.05" x2="11.415" y1="47.746" y2="42.4" gradientUnits="userSpaceOnUse" xlink:href="#a"/><linearGradient id="d" x1="28" x2="24" y1="37" y2="17" gradientTransform="translate(0 1)" gradientUnits="userSpaceOnUse"><stop stop-color="#f7bb5d"/><stop offset="1" stop-color="#fce3bc"/></linearGradient><linearGradient id="e" x1="23" x2="38" y1="17.998" y2="32.998" gradientUnits="userSpaceOnUse"><stop stop-color="#292c2f"/><stop offset="1" stop-opacity="0"/></linearGradient><linearGradient id="f" x1="21" x2="23" y1="40" y2="42" gradientUnits="userSpaceOnUse" xlink:href="#e"/><linearGradient id="g" x1="20" x2="24" y1="40" y2="44" gradientTransform="translate(0-2)" gradientUnits="userSpaceOnUse" xlink:href="#e"/><linearGradient id="h" x1="21" x2="23" y1="40" y2="42" gradientTransform="translate(1 2)" gradientUnits="userSpaceOnUse" xlink:href="#e"/></defs><g stroke-linejoin="bevel" stroke-width="6.2"><g stroke-linecap="round"><rect width="4" height="3" x="22" y="41" fill="#4d4d4d"/><g transform="rotate(-30)"><circle cx="8.584" cy="15.644" r="5.256" fill="#258e52"/><circle cx="9.245" cy="50.963" r="3.488" fill="#2980b9"/></g><g transform="rotate(30)"><circle cx="33.429" cy="-8.612" r="4.256" fill="#1c7865"/><circle cx="31.629" cy="26.758" r="4.01" fill="#c0392b"/></g><g transform="rotate(90)"><circle cx="24" cy="-41.02" r="4.975" fill="#663579"/><circle cx="24" cy="-7" r="5" fill="#f67400"/></g></g><path fill="url(#b)" d="m24 14c-5.523 0-10 4.477-10 10 .002 3.974 2 6.32 4 8.16 2 1.84 1 4.84 2 5.84h8c1-1 0-4 2-5.848 2-1.848 3.995-4.181 4-8.152 0-5.523-4.477-10-10-10"/><path fill="url(#a)" d="m20 38h8l-1 1v3l-1 1h-4l-1-1v-3z"/></g><g fill-rule="evenodd"><path fill="url(#h)" d="m22 42l1 1h3v-2z" opacity=".2"/><path fill="url(#g)" d="m25 43l2-1v-3l1-1h-8z" opacity=".2"/><path fill="url(#f)" d="m21 41l1 1 5-1v-2l-6 1z" opacity=".2"/></g><g fill="url(#c)" stroke-linecap="round" stroke-linejoin="bevel" stroke-width="6.2"><rect width="8" height="1" x="8.44" y="45.8" rx=".5" transform="rotate(-15)"/><rect width="8" height="1" x="8.96" y="43.87" rx=".5" transform="rotate(-15)"/></g><g fill-rule="evenodd"><path fill="url(#e)" d="m25 18l-2 14 5.342 5.342c.398-1.314-.012-3.646 1.658-5.189 1.506-1.391 3.01-3.059 3.66-5.492z" opacity=".2"/><path fill="url(#d)" d="m25 18l-5 8h3v6l5-8h-3z"/></g><g stroke-linejoin="bevel" stroke-width="6.2"><path fill="#b97c1b" d="m33.973 23.434c-.149 3.7-2.049 5.942-3.973 7.719-2 1.848-1 4.848-2 5.848h-8c-1-1 0-4-2-5.84-1.922-1.768-3.825-4.02-3.973-7.721-.01.187-.027.371-.027.561.002 3.974 2 6.32 4 8.16 2 1.84 1 4.84 2 5.84h8c1-1 0-4 2-5.848 2-1.848 3.995-4.181 4-8.152 0-.191-.017-.378-.027-.566"/><g fill="#fcfcfc" stroke-linecap="round"><g transform="rotate(-30)"><circle cx="8.584" cy="15.644" r="3.256"/><circle cx="9.245" cy="50.963" r="1.512"/></g><g transform="rotate(30)"><circle cx="33.429" cy="-8.612" r="1.744"/><circle cx="31.629" cy="26.758" r="1.988"/></g><g transform="rotate(90)"><circle cx="24" cy="-41.02" r="3"/><circle cx="24" cy="-7" r="1"/></g></g></g></svg>