<svg xmlns="http://www.w3.org/2000/svg" xmlns:xlink="http://www.w3.org/1999/xlink" width="48" height="48"><defs><linearGradient id="a" x1="8" x2="27" y1="25" y2="44" gradientUnits="userSpaceOnUse"><stop/><stop offset="1" stop-opacity="0"/></linearGradient><linearGradient id="b" x2="0" y1="44" y2="18" gradientUnits="userSpaceOnUse"><stop stop-color="#c6cdd1"/><stop offset="1" stop-color="#e0e5e7"/></linearGradient><linearGradient id="c" x2="0" y1="20" y2="16" gradientUnits="userSpaceOnUse"><stop stop-color="#06a370"/><stop offset="1" stop-color="#22d1b0"/></linearGradient><linearGradient id="d" x2="0" y1="21" y2="4" gradientUnits="userSpaceOnUse" xlink:href="#c"/><linearGradient id="e" x2="0" y1="15" y2="4" gradientUnits="userSpaceOnUse" xlink:href="#c"/><linearGradient id="f" x2="0" y1="16" y2="7" gradientUnits="userSpaceOnUse" xlink:href="#c"/><linearGradient id="g" x2="0" y1="17" y2="10" gradientUnits="userSpaceOnUse" xlink:href="#c"/><linearGradient id="h" x2="0" y1="17" y2="8" gradientUnits="userSpaceOnUse"><stop stop-color="#c61423"/><stop offset="1" stop-color="#dc2b41"/></linearGradient><linearGradient id="i" x2="0" y1="17" y2="12" gradientUnits="userSpaceOnUse" xlink:href="#h"/><linearGradient id="j" x2="0" y1="21" y2="12" gradientUnits="userSpaceOnUse" xlink:href="#h"/><linearGradient id="k" x2="0" y1="25" y2="10" gradientUnits="userSpaceOnUse"><stop stop-color="#f39c12"/><stop offset="1" stop-color="#f5ab35"/></linearGradient></defs><rect width="40" height="26" x="4" y="18" fill="url(#b)"/><g stroke-linecap="round" stroke-linejoin="bevel" stroke-width="2"><rect width="4" height="9" x="8" y="16" fill="url(#c)"/><rect width="4" height="21" x="12" y="4" fill="url(#d)"/><rect width="4" height="13" x="16" y="12" fill="url(#j)"/><rect width="4" height="15" x="20" y="10" fill="url(#g)"/><rect width="4" height="18" x="24" y="7" fill="url(#f)"/><rect width="4" height="13" x="28" y="12" fill="url(#i)"/><rect width="4" height="21" x="32" y="4" fill="url(#e)"/><rect width="4" height="17" x="36" y="8" fill="url(#h)"/><g fill="#eff0f1"><rect width="4" height="3" x="8" y="31"/><rect width="4" height="3" x="8" y="39"/><rect width="4" height="3" x="8" y="27"/><rect width="4" height="3" x="14" y="31"/><rect width="4" height="3" x="14" y="39"/><rect width="4" height="3" x="14" y="27"/><rect width="12" height="3" x="20" y="31"/><rect width="12" height="3" x="20" y="39"/><rect width="12" height="3" x="20" y="27"/><rect width="6" height="3" x="34" y="31"/><rect width="6" height="3" x="34" y="39"/><rect width="6" height="3" x="34" y="27"/><rect width="4" height="3" x="8" y="35"/><rect width="4" height="3" x="14" y="35"/><rect width="12" height="3" x="20" y="35"/><rect width="6" height="3" x="34" y="35"/></g><rect width="1" height="1" x="9" y="28" fill="#4d4d4d"/><rect width="2" height="1" x="9" y="32" fill="#c0392b"/><rect width="1" height="1" x="9" y="36" fill="#4d4d4d"/><rect width="2" height="1" x="9" y="40" fill="#258e52"/><rect width="1" height="1" x="15" y="40" fill="#4d4d4d"/><rect width="1" height="1" x="15" y="36" fill="#258e52"/><rect width="1" height="1" x="15" y="32" fill="#c0392b"/><g fill="#4d4d4d"><rect width="1" height="1" x="15" y="28"/><rect width="4" height="1" x="21" y="28"/></g><g fill="#258e52"><rect width="2" height="1" x="21" y="32"/><rect width="2" height="1" x="24" y="32"/><rect width="3" height="1" x="21" y="36"/></g><g fill="#c0392b"><rect width="7" height="1" x="21" y="40"/><rect width="1" height="1" x="29" y="40"/></g><rect width="3" height="1" x="35" y="28" fill="#258e52"/><rect width="1" height="1" x="35" y="32" fill="#4d4d4d"/><rect width="2" height="1" x="35" y="36" fill="#c0392b"/><rect width="3" height="1" x="35" y="40" fill="#4d4d4d"/></g><path fill="url(#a)" fill-rule="evenodd" d="m8 25l19 19h17v-15l-4-4z" opacity=".2"/><rect width="40" height="1" x="4" y="43" fill="#2e3132" opacity=".1"/><path fill="url(#k)" fill-rule="evenodd" d="m8 25v-3c2 0 2-3 4-3 2 0 1.5 4 4 4 2.5 0 2-4 4-4 2 0 2-4 4-4 2 0 2 4 4 4 2 0 2-2 4-2 2 0 2-5 4-5 2 0 2 7 4 7v6z"/><rect width="32" height="1" x="8" y="24" fill="#2e3132" fill-opacity=".294"/></svg>